<svg xmlns="http://www.w3.org/2000/svg" xmlns:xlink="http://www.w3.org/1999/xlink" contentStyleType="text/css" data-diagram-type="CLASS" height="958px" preserveAspectRatio="none" style="width:1613px;height:958px;background:#FFFFFF;" version="1.1" viewBox="0 0 1613 958" width="1613px" zoomAndPan="magnify"><defs/><g><!--class Player--><g id="elem_Player"><rect codeLine="1" fill="#F1F1F1" height="308.75" id="Player" rx="2.5" ry="2.5" style="stroke:#181818;stroke-width:0.5;" width="267.418" x="683" y="7"/><ellipse cx="790.6763" cy="23" fill="#ADD1B2" rx="11" ry="11" style="stroke:#181818;stroke-width:1;"/><path d="M793.645,28.6406 Q793.0669,28.9375 792.4263,29.0781 Q791.7856,29.2344 791.0825,29.2344 Q788.5825,29.2344 787.2544,27.5938 Q785.9419,25.9375 785.9419,22.8125 Q785.9419,19.6875 787.2544,18.0313 Q788.5825,16.375 791.0825,16.375 Q791.7856,16.375 792.4263,16.5313 Q793.0825,16.6875 793.645,16.9844 L793.645,19.7031 Q793.02,19.125 792.4263,18.8594 Q791.8325,18.5781 791.2075,18.5781 Q789.8638,18.5781 789.1763,19.6563 Q788.4888,20.7188 788.4888,22.8125 Q788.4888,24.9063 789.1763,25.9844 Q789.8638,27.0469 791.2075,27.0469 Q791.8325,27.0469 792.4263,26.7813 Q793.02,26.5 793.645,25.9219 L793.645,28.6406 Z " fill="#000000"/><text fill="#000000" font-family="sans-serif" font-size="14" lengthAdjust="spacing" textLength="43.5654" x="811.1763" y="27.8467">Player</text><line style="stroke:#181818;stroke-width:0.5;" x1="684" x2="949.418" y1="39" y2="39"/><rect fill="transparent" height="6" style="stroke:#C82930;stroke-width:1;" width="6" x="691" y="49.6484"/><text fill="#000000" font-family="sans-serif" font-size="14" lengthAdjust="spacing" textLength="121.4951" x="703" y="55.9951">weapon: Weapon</text><rect fill="transparent" height="6" style="stroke:#C82930;stroke-width:1;" width="6" x="691" y="65.9453"/><text fill="#000000" font-family="sans-serif" font-size="14" lengthAdjust="spacing" textLength="165.4365" x="703" y="72.292">original_image: Surface</text><rect fill="transparent" height="6" style="stroke:#C82930;stroke-width:1;" width="6" x="691" y="82.2422"/><text fill="#000000" font-family="sans-serif" font-size="14" lengthAdjust="spacing" textLength="134.251" x="703" y="88.5889">collision_radius: int</text><rect fill="transparent" height="6" style="stroke:#C82930;stroke-width:1;" width="6" x="691" y="98.5391"/><text fill="#000000" font-family="sans-serif" font-size="14" lengthAdjust="spacing" textLength="131.8037" x="703" y="104.8857">collision_rect: Rect</text><rect fill="transparent" height="6" style="stroke:#C82930;stroke-width:1;" width="6" x="691" y="114.8359"/><text fill="#000000" font-family="sans-serif" font-size="14" lengthAdjust="spacing" textLength="69.7129" x="703" y="121.1826">speed: int</text><rect fill="transparent" height="6" style="stroke:#C82930;stroke-width:1;" width="6" x="691" y="131.1328"/><text fill="#000000" font-family="sans-serif" font-size="14" lengthAdjust="spacing" textLength="79.4609" x="703" y="137.4795">angle: float</text><rect fill="transparent" height="6" style="stroke:#C82930;stroke-width:1;" width="6" x="691" y="147.4297"/><text fill="#000000" font-family="sans-serif" font-size="14" lengthAdjust="spacing" textLength="71.8389" x="703" y="153.7764">ammo: int</text><rect fill="transparent" height="6" style="stroke:#C82930;stroke-width:1;" width="6" x="691" y="163.7266"/><text fill="#000000" font-family="sans-serif" font-size="14" lengthAdjust="spacing" textLength="123.1973" x="703" y="170.0732">is_reloading: bool</text><rect fill="transparent" height="6" style="stroke:#C82930;stroke-width:1;" width="6" x="691" y="180.0234"/><text fill="#000000" font-family="sans-serif" font-size="14" lengthAdjust="spacing" textLength="128.5225" x="703" y="186.3701">last_shot_time: int</text><line style="stroke:#181818;stroke-width:0.5;" x1="684" x2="949.418" y1="193.6719" y2="193.6719"/><ellipse cx="694" cy="207.3203" fill="#84BE84" rx="3" ry="3" style="stroke:#038048;stroke-width:1;"/><text fill="#000000" font-family="sans-serif" font-size="14" lengthAdjust="spacing" textLength="60.252" x="703" y="210.667">update()</text><ellipse cx="694" cy="223.6172" fill="#84BE84" rx="3" ry="3" style="stroke:#038048;stroke-width:1;"/><text fill="#000000" font-family="sans-serif" font-size="14" lengthAdjust="spacing" textLength="241.418" x="703" y="226.9639">equip_weapon(weapon_name: str)</text><ellipse cx="694" cy="239.9141" fill="#84BE84" rx="3" ry="3" style="stroke:#038048;stroke-width:1;"/><text fill="#000000" font-family="sans-serif" font-size="14" lengthAdjust="spacing" textLength="120.9346" x="703" y="243.2607">can_shoot(): bool</text><ellipse cx="694" cy="256.2109" fill="#84BE84" rx="3" ry="3" style="stroke:#038048;stroke-width:1;"/><text fill="#000000" font-family="sans-serif" font-size="14" lengthAdjust="spacing" textLength="94.8213" x="703" y="259.5576">start_reload()</text><ellipse cx="694" cy="272.5078" fill="#84BE84" rx="3" ry="3" style="stroke:#038048;stroke-width:1;"/><text fill="#000000" font-family="sans-serif" font-size="14" lengthAdjust="spacing" textLength="111.542" x="703" y="275.8545">update_reload()</text><ellipse cx="694" cy="288.8047" fill="#84BE84" rx="3" ry="3" style="stroke:#038048;stroke-width:1;"/><text fill="#000000" font-family="sans-serif" font-size="14" lengthAdjust="spacing" textLength="206.3633" x="703" y="292.1514">draw_ammo(screen: Surface)</text><ellipse cx="694" cy="305.1016" fill="#84BE84" rx="3" ry="3" style="stroke:#038048;stroke-width:1;"/><text fill="#000000" font-family="sans-serif" font-size="14" lengthAdjust="spacing" textLength="49.7109" x="703" y="308.4482">shoot()</text></g><!--class Weapon--><g id="elem_Weapon"><rect codeLine="20" fill="#F1F1F1" height="227.2656" id="Weapon" rx="2.5" ry="2.5" style="stroke:#181818;stroke-width:0.5;" width="168.0029" x="940.5" y="393"/><ellipse cx="991.5713" cy="409" fill="#ADD1B2" rx="11" ry="11" style="stroke:#181818;stroke-width:1;"/><path d="M994.54,414.6406 Q993.9619,414.9375 993.3213,415.0781 Q992.6807,415.2344 991.9775,415.2344 Q989.4775,415.2344 988.1494,413.5938 Q986.8369,411.9375 986.8369,408.8125 Q986.8369,405.6875 988.1494,404.0313 Q989.4775,402.375 991.9775,402.375 Q992.6807,402.375 993.3213,402.5313 Q993.9775,402.6875 994.54,402.9844 L994.54,405.7031 Q993.915,405.125 993.3213,404.8594 Q992.7275,404.5781 992.1025,404.5781 Q990.7588,404.5781 990.0713,405.6563 Q989.3838,406.7188 989.3838,408.8125 Q989.3838,410.9063 990.0713,411.9844 Q990.7588,413.0469 992.1025,413.0469 Q992.7275,413.0469 993.3213,412.7813 Q993.915,412.5 994.54,411.9219 L994.54,414.6406 Z " fill="#000000"/><text fill="#000000" font-family="sans-serif" font-size="14" lengthAdjust="spacing" textLength="57.3604" x="1012.0713" y="413.8467">Weapon</text><line style="stroke:#181818;stroke-width:0.5;" x1="941.5" x2="1107.5029" y1="425" y2="425"/><rect fill="transparent" height="6" style="stroke:#C82930;stroke-width:1;" width="6" x="948.5" y="435.6484"/><text fill="#000000" font-family="sans-serif" font-size="14" lengthAdjust="spacing" textLength="67.4092" x="960.5" y="441.9951">name: str</text><rect fill="transparent" height="6" style="stroke:#C82930;stroke-width:1;" width="6" x="948.5" y="451.9453"/><text fill="#000000" font-family="sans-serif" font-size="14" lengthAdjust="spacing" textLength="84.6016" x="960.5" y="458.292">damage: int</text><rect fill="transparent" height="6" style="stroke:#C82930;stroke-width:1;" width="6" x="948.5" y="468.2422"/><text fill="#000000" font-family="sans-serif" font-size="14" lengthAdjust="spacing" textLength="86.0439" x="960.5" y="474.5889">fire_rate: int</text><rect fill="transparent" height="6" style="stroke:#C82930;stroke-width:1;" width="6" x="948.5" y="484.5391"/><text fill="#000000" font-family="sans-serif" font-size="14" lengthAdjust="spacing" textLength="71.8389" x="960.5" y="490.8857">ammo: int</text><rect fill="transparent" height="6" style="stroke:#C82930;stroke-width:1;" width="6" x="948.5" y="500.8359"/><text fill="#000000" font-family="sans-serif" font-size="14" lengthAdjust="spacing" textLength="110.3389" x="960.5" y="507.1826">reload_time: int</text><rect fill="transparent" height="6" style="stroke:#C82930;stroke-width:1;" width="6" x="948.5" y="517.1328"/><text fill="#000000" font-family="sans-serif" font-size="14" lengthAdjust="spacing" textLength="56.4648" x="960.5" y="523.4795">cost: int</text><rect fill="transparent" height="6" style="stroke:#C82930;stroke-width:1;" width="6" x="948.5" y="533.4297"/><text fill="#000000" font-family="sans-serif" font-size="14" lengthAdjust="spacing" textLength="112.5332" x="960.5" y="539.7764">purchased: bool</text><rect fill="transparent" height="6" style="stroke:#C82930;stroke-width:1;" width="6" x="948.5" y="549.7266"/><text fill="#000000" font-family="sans-serif" font-size="14" lengthAdjust="spacing" textLength="88.6348" x="960.5" y="556.0732">spread: float</text><rect fill="transparent" height="6" style="stroke:#C82930;stroke-width:1;" width="6" x="948.5" y="566.0234"/><text fill="#000000" font-family="sans-serif" font-size="14" lengthAdjust="spacing" textLength="142.0029" x="960.5" y="572.3701">projectile_speed: int</text><rect fill="transparent" height="6" style="stroke:#C82930;stroke-width:1;" width="6" x="948.5" y="582.3203"/><text fill="#000000" font-family="sans-serif" font-size="14" lengthAdjust="spacing" textLength="128.0576" x="960.5" y="588.667">is_automatic: bool</text><rect fill="transparent" height="6" style="stroke:#C82930;stroke-width:1;" width="6" x="948.5" y="598.6172"/><text fill="#000000" font-family="sans-serif" font-size="14" lengthAdjust="spacing" textLength="105.6289" x="960.5" y="604.9639">max_range: int</text><line style="stroke:#181818;stroke-width:0.5;" x1="941.5" x2="1107.5029" y1="612.2656" y2="612.2656"/></g><!--class Zombie--><g id="elem_Zombie"><rect codeLine="34" fill="#F1F1F1" height="227.2656" id="Zombie" rx="2.5" ry="2.5" style="stroke:#181818;stroke-width:0.5;" width="201.9502" x="1143.5" y="393"/><ellipse cx="1213.6333" cy="409" fill="#ADD1B2" rx="11" ry="11" style="stroke:#181818;stroke-width:1;"/><path d="M1216.6021,414.6406 Q1216.0239,414.9375 1215.3833,415.0781 Q1214.7427,415.2344 1214.0396,415.2344 Q1211.5396,415.2344 1210.2114,413.5938 Q1208.8989,411.9375 1208.8989,408.8125 Q1208.8989,405.6875 1210.2114,404.0313 Q1211.5396,402.375 1214.0396,402.375 Q1214.7427,402.375 1215.3833,402.5313 Q1216.0396,402.6875 1216.6021,402.9844 L1216.6021,405.7031 Q1215.9771,405.125 1215.3833,404.8594 Q1214.7896,404.5781 1214.1646,404.5781 Q1212.8208,404.5781 1212.1333,405.6563 Q1211.4458,406.7188 1211.4458,408.8125 Q1211.4458,410.9063 1212.1333,411.9844 Q1212.8208,413.0469 1214.1646,413.0469 Q1214.7896,413.0469 1215.3833,412.7813 Q1215.9771,412.5 1216.6021,411.9219 L1216.6021,414.6406 Z " fill="#000000"/><text fill="#000000" font-family="sans-serif" font-size="14" lengthAdjust="spacing" textLength="53.1836" x="1234.1333" y="413.8467">Zombie</text><line style="stroke:#181818;stroke-width:0.5;" x1="1144.5" x2="1344.4502" y1="425" y2="425"/><rect fill="transparent" height="6" style="stroke:#C82930;stroke-width:1;" width="6" x="1151.5" y="435.6484"/><text fill="#000000" font-family="sans-serif" font-size="14" lengthAdjust="spacing" textLength="165.4365" x="1163.5" y="441.9951">original_image: Surface</text><rect fill="transparent" height="6" style="stroke:#C82930;stroke-width:1;" width="6" x="1151.5" y="451.9453"/><text fill="#000000" font-family="sans-serif" font-size="14" lengthAdjust="spacing" textLength="175.9502" x="1163.5" y="458.292">path_update_interval: int</text><rect fill="transparent" height="6" style="stroke:#C82930;stroke-width:1;" width="6" x="1151.5" y="468.2422"/><text fill="#000000" font-family="sans-serif" font-size="14" lengthAdjust="spacing" textLength="173.8379" x="1163.5" y="474.5889">current_target_index: int</text><rect fill="transparent" height="6" style="stroke:#C82930;stroke-width:1;" width="6" x="1151.5" y="484.5391"/><text fill="#000000" font-family="sans-serif" font-size="14" lengthAdjust="spacing" textLength="61.5576" x="1163.5" y="490.8857">path: list</text><rect fill="transparent" height="6" style="stroke:#C82930;stroke-width:1;" width="6" x="1151.5" y="500.8359"/><text fill="#000000" font-family="sans-serif" font-size="14" lengthAdjust="spacing" textLength="134.251" x="1163.5" y="507.1826">collision_radius: int</text><rect fill="transparent" height="6" style="stroke:#C82930;stroke-width:1;" width="6" x="1151.5" y="517.1328"/><text fill="#000000" font-family="sans-serif" font-size="14" lengthAdjust="spacing" textLength="123.2861" x="1163.5" y="523.4795">base_speed: float</text><rect fill="transparent" height="6" style="stroke:#C82930;stroke-width:1;" width="6" x="1151.5" y="533.4297"/><text fill="#000000" font-family="sans-serif" font-size="14" lengthAdjust="spacing" textLength="109.2383" x="1163.5" y="539.7764">max_health: int</text><rect fill="transparent" height="6" style="stroke:#C82930;stroke-width:1;" width="6" x="1151.5" y="549.7266"/><text fill="#000000" font-family="sans-serif" font-size="14" lengthAdjust="spacing" textLength="71.7363" x="1163.5" y="556.0732">health: int</text><line style="stroke:#181818;stroke-width:0.5;" x1="1144.5" x2="1344.4502" y1="563.375" y2="563.375"/><ellipse cx="1154.5" cy="577.0234" fill="#84BE84" rx="3" ry="3" style="stroke:#038048;stroke-width:1;"/><text fill="#000000" font-family="sans-serif" font-size="14" lengthAdjust="spacing" textLength="60.252" x="1163.5" y="580.3701">update()</text><ellipse cx="1154.5" cy="593.3203" fill="#84BE84" rx="3" ry="3" style="stroke:#038048;stroke-width:1;"/><text fill="#000000" font-family="sans-serif" font-size="14" lengthAdjust="spacing" textLength="119.9775" x="1163.5" y="596.667">avoid_collisions()</text><ellipse cx="1154.5" cy="609.6172" fill="#84BE84" rx="3" ry="3" style="stroke:#038048;stroke-width:1;"/><text fill="#000000" font-family="sans-serif" font-size="14" lengthAdjust="spacing" textLength="99.0801" x="1163.5" y="612.9639">update_path()</text></g><!--class TankZombie--><g id="elem_TankZombie"><rect codeLine="48" fill="#F1F1F1" height="80.5938" id="TankZombie" rx="2.5" ry="2.5" style="stroke:#181818;stroke-width:0.5;" width="198.6963" x="911" y="697"/><ellipse cx="962.4507" cy="713" fill="#ADD1B2" rx="11" ry="11" style="stroke:#181818;stroke-width:1;"/><path d="M965.4194,718.6406 Q964.8413,718.9375 964.2007,719.0781 Q963.5601,719.2344 962.8569,719.2344 Q960.3569,719.2344 959.0288,717.5938 Q957.7163,715.9375 957.7163,712.8125 Q957.7163,709.6875 959.0288,708.0313 Q960.3569,706.375 962.8569,706.375 Q963.5601,706.375 964.2007,706.5313 Q964.8569,706.6875 965.4194,706.9844 L965.4194,709.7031 Q964.7944,709.125 964.2007,708.8594 Q963.6069,708.5781 962.9819,708.5781 Q961.6382,708.5781 960.9507,709.6563 Q960.2632,710.7188 960.2632,712.8125 Q960.2632,714.9063 960.9507,715.9844 Q961.6382,717.0469 962.9819,717.0469 Q963.6069,717.0469 964.2007,716.7813 Q964.7944,716.5 965.4194,715.9219 L965.4194,718.6406 Z " fill="#000000"/><text fill="#000000" font-family="sans-serif" font-size="14" lengthAdjust="spacing" textLength="87.2949" x="982.9507" y="717.8467">TankZombie</text><line style="stroke:#181818;stroke-width:0.5;" x1="912" x2="1108.6963" y1="729" y2="729"/><rect fill="transparent" height="6" style="stroke:#C82930;stroke-width:1;" width="6" x="919" y="739.6484"/><text fill="#000000" font-family="sans-serif" font-size="14" lengthAdjust="spacing" textLength="166.1816" x="931" y="745.9951">base_speed: float = 0.8</text><rect fill="transparent" height="6" style="stroke:#C82930;stroke-width:1;" width="6" x="919" y="755.9453"/><text fill="#000000" font-family="sans-serif" font-size="14" lengthAdjust="spacing" textLength="172.6963" x="931" y="762.292">collision_radius: int = 30</text><line style="stroke:#181818;stroke-width:0.5;" x1="912" x2="1108.6963" y1="769.5938" y2="769.5938"/></g><!--class RunnerZombie--><g id="elem_RunnerZombie"><rect codeLine="53" fill="#F1F1F1" height="80.5938" id="RunnerZombie" rx="2.5" ry="2.5" style="stroke:#181818;stroke-width:0.5;" width="198.6963" x="1145" y="697"/><ellipse cx="1188.2586" cy="713" fill="#ADD1B2" rx="11" ry="11" style="stroke:#181818;stroke-width:1;"/><path d="M1191.2273,718.6406 Q1190.6492,718.9375 1190.0086,719.0781 Q1189.368,719.2344 1188.6648,719.2344 Q1186.1648,719.2344 1184.8367,717.5938 Q1183.5242,715.9375 1183.5242,712.8125 Q1183.5242,709.6875 1184.8367,708.0313 Q1186.1648,706.375 1188.6648,706.375 Q1189.368,706.375 1190.0086,706.5313 Q1190.6648,706.6875 1191.2273,706.9844 L1191.2273,709.7031 Q1190.6023,709.125 1190.0086,708.8594 Q1189.4148,708.5781 1188.7898,708.5781 Q1187.4461,708.5781 1186.7586,709.6563 Q1186.0711,710.7188 1186.0711,712.8125 Q1186.0711,714.9063 1186.7586,715.9844 Q1187.4461,717.0469 1188.7898,717.0469 Q1189.4148,717.0469 1190.0086,716.7813 Q1190.6023,716.5 1191.2273,715.9219 L1191.2273,718.6406 Z " fill="#000000"/><text fill="#000000" font-family="sans-serif" font-size="14" lengthAdjust="spacing" textLength="103.8994" x="1208.5383" y="717.8467">RunnerZombie</text><line style="stroke:#181818;stroke-width:0.5;" x1="1146" x2="1342.6963" y1="729" y2="729"/><rect fill="transparent" height="6" style="stroke:#C82930;stroke-width:1;" width="6" x="1153" y="739.6484"/><text fill="#000000" font-family="sans-serif" font-size="14" lengthAdjust="spacing" textLength="166.1816" x="1165" y="745.9951">base_speed: float = 3.2</text><rect fill="transparent" height="6" style="stroke:#C82930;stroke-width:1;" width="6" x="1153" y="755.9453"/><text fill="#000000" font-family="sans-serif" font-size="14" lengthAdjust="spacing" textLength="172.6963" x="1165" y="762.292">collision_radius: int = 15</text><line style="stroke:#181818;stroke-width:0.5;" x1="1146" x2="1342.6963" y1="769.5938" y2="769.5938"/></g><!--class SpitterZombie--><g id="elem_SpitterZombie"><rect codeLine="58" fill="#F1F1F1" height="113.1875" id="SpitterZombie" rx="2.5" ry="2.5" style="stroke:#181818;stroke-width:0.5;" width="227.1133" x="1379" y="681"/><ellipse cx="1438.2095" cy="697" fill="#ADD1B2" rx="11" ry="11" style="stroke:#181818;stroke-width:1;"/><path d="M1441.1782,702.6406 Q1440.6001,702.9375 1439.9595,703.0781 Q1439.3188,703.2344 1438.6157,703.2344 Q1436.1157,703.2344 1434.7876,701.5938 Q1433.4751,699.9375 1433.4751,696.8125 Q1433.4751,693.6875 1434.7876,692.0313 Q1436.1157,690.375 1438.6157,690.375 Q1439.3188,690.375 1439.9595,690.5313 Q1440.6157,690.6875 1441.1782,690.9844 L1441.1782,693.7031 Q1440.5532,693.125 1439.9595,692.8594 Q1439.3657,692.5781 1438.7407,692.5781 Q1437.397,692.5781 1436.7095,693.6563 Q1436.022,694.7188 1436.022,696.8125 Q1436.022,698.9063 1436.7095,699.9844 Q1437.397,701.0469 1438.7407,701.0469 Q1439.3657,701.0469 1439.9595,700.7813 Q1440.5532,700.5 1441.1782,699.9219 L1441.1782,702.6406 Z " fill="#000000"/><text fill="#000000" font-family="sans-serif" font-size="14" lengthAdjust="spacing" textLength="100.1943" x="1458.7095" y="701.8467">SpitterZombie</text><line style="stroke:#181818;stroke-width:0.5;" x1="1380" x2="1605.1133" y1="713" y2="713"/><rect fill="transparent" height="6" style="stroke:#C82930;stroke-width:1;" width="6" x="1387" y="723.6484"/><text fill="#000000" font-family="sans-serif" font-size="14" lengthAdjust="spacing" textLength="166.1816" x="1399" y="729.9951">base_speed: float = 1.0</text><rect fill="transparent" height="6" style="stroke:#C82930;stroke-width:1;" width="6" x="1387" y="739.9453"/><text fill="#000000" font-family="sans-serif" font-size="14" lengthAdjust="spacing" textLength="201.1133" x="1399" y="746.292">attack_cooldown: int = 2000</text><rect fill="transparent" height="6" style="stroke:#C82930;stroke-width:1;" width="6" x="1387" y="756.2422"/><text fill="#000000" font-family="sans-serif" font-size="14" lengthAdjust="spacing" textLength="103.6123" x="1399" y="762.5889">last_attack: int</text><line style="stroke:#181818;stroke-width:0.5;" x1="1380" x2="1605.1133" y1="769.8906" y2="769.8906"/><ellipse cx="1390" cy="783.5391" fill="#84BE84" rx="3" ry="3" style="stroke:#038048;stroke-width:1;"/><text fill="#000000" font-family="sans-serif" font-size="14" lengthAdjust="spacing" textLength="54.8652" x="1399" y="786.8857">attack()</text></g><!--class PlayerHealth--><g id="elem_PlayerHealth"><rect codeLine="65" fill="#F1F1F1" height="178.375" id="PlayerHealth" rx="2.5" ry="2.5" style="stroke:#181818;stroke-width:0.5;" width="252.4063" x="223.5" y="417.5"/><ellipse cx="300.6846" cy="433.5" fill="#ADD1B2" rx="11" ry="11" style="stroke:#181818;stroke-width:1;"/><path d="M303.6533,439.1406 Q303.0752,439.4375 302.4346,439.5781 Q301.7939,439.7344 301.0908,439.7344 Q298.5908,439.7344 297.2627,438.0938 Q295.9502,436.4375 295.9502,433.3125 Q295.9502,430.1875 297.2627,428.5313 Q298.5908,426.875 301.0908,426.875 Q301.7939,426.875 302.4346,427.0313 Q303.0908,427.1875 303.6533,427.4844 L303.6533,430.2031 Q303.0283,429.625 302.4346,429.3594 Q301.8408,429.0781 301.2158,429.0781 Q299.8721,429.0781 299.1846,430.1563 Q298.4971,431.2188 298.4971,433.3125 Q298.4971,435.4063 299.1846,436.4844 Q299.8721,437.5469 301.2158,437.5469 Q301.8408,437.5469 302.4346,437.2813 Q303.0283,437 303.6533,436.4219 L303.6533,439.1406 Z " fill="#000000"/><text fill="#000000" font-family="sans-serif" font-size="14" lengthAdjust="spacing" textLength="89.5371" x="321.1846" y="438.3467">PlayerHealth</text><line style="stroke:#181818;stroke-width:0.5;" x1="224.5" x2="474.9063" y1="449.5" y2="449.5"/><rect fill="transparent" height="6" style="stroke:#C82930;stroke-width:1;" width="6" x="231.5" y="460.1484"/><text fill="#000000" font-family="sans-serif" font-size="14" lengthAdjust="spacing" textLength="109.5254" x="243.5" y="466.4951">max_hearts: int</text><rect fill="transparent" height="6" style="stroke:#C82930;stroke-width:1;" width="6" x="231.5" y="476.4453"/><text fill="#000000" font-family="sans-serif" font-size="14" lengthAdjust="spacing" textLength="72.0234" x="243.5" y="482.792">hearts: int</text><rect fill="transparent" height="6" style="stroke:#C82930;stroke-width:1;" width="6" x="231.5" y="492.7422"/><text fill="#000000" font-family="sans-serif" font-size="14" lengthAdjust="spacing" textLength="146.0293" x="243.5" y="499.0889">iframes_duration: int</text><rect fill="transparent" height="6" style="stroke:#C82930;stroke-width:1;" width="6" x="231.5" y="509.0391"/><text fill="#000000" font-family="sans-serif" font-size="14" lengthAdjust="spacing" textLength="116.5527" x="243.5" y="515.3857">last_hit_time: int</text><rect fill="transparent" height="6" style="stroke:#C82930;stroke-width:1;" width="6" x="231.5" y="525.3359"/><text fill="#000000" font-family="sans-serif" font-size="14" lengthAdjust="spacing" textLength="124.0449" x="243.5" y="531.6826">is_invincible: bool</text><line style="stroke:#181818;stroke-width:0.5;" x1="224.5" x2="474.9063" y1="538.9844" y2="538.9844"/><ellipse cx="234.5" cy="552.6328" fill="#84BE84" rx="3" ry="3" style="stroke:#038048;stroke-width:1;"/><text fill="#000000" font-family="sans-serif" font-size="14" lengthAdjust="spacing" textLength="226.4063" x="243.5" y="555.9795">take_damage(amount: int): bool</text><ellipse cx="234.5" cy="568.9297" fill="#84BE84" rx="3" ry="3" style="stroke:#038048;stroke-width:1;"/><text fill="#000000" font-family="sans-serif" font-size="14" lengthAdjust="spacing" textLength="60.252" x="243.5" y="572.2764">update()</text><ellipse cx="234.5" cy="585.2266" fill="#84BE84" rx="3" ry="3" style="stroke:#038048;stroke-width:1;"/><text fill="#000000" font-family="sans-serif" font-size="14" lengthAdjust="spacing" textLength="154.9434" x="243.5" y="588.5732">draw(screen: Surface)</text></g><!--class Farm--><g id="elem_Farm"><rect codeLine="76" fill="#F1F1F1" height="145.7813" id="Farm" rx="2.5" ry="2.5" style="stroke:#181818;stroke-width:0.5;" width="180.9434" x="511" y="433.5"/><ellipse cx="579.209" cy="449.5" fill="#ADD1B2" rx="11" ry="11" style="stroke:#181818;stroke-width:1;"/><path d="M582.1777,455.1406 Q581.5996,455.4375 580.959,455.5781 Q580.3184,455.7344 579.6152,455.7344 Q577.1152,455.7344 575.7871,454.0938 Q574.4746,452.4375 574.4746,449.3125 Q574.4746,446.1875 575.7871,444.5313 Q577.1152,442.875 579.6152,442.875 Q580.3184,442.875 580.959,443.0313 Q581.6152,443.1875 582.1777,443.4844 L582.1777,446.2031 Q581.5527,445.625 580.959,445.3594 Q580.3652,445.0781 579.7402,445.0781 Q578.3965,445.0781 577.709,446.1563 Q577.0215,447.2188 577.0215,449.3125 Q577.0215,451.4063 577.709,452.4844 Q578.3965,453.5469 579.7402,453.5469 Q580.3652,453.5469 580.959,453.2813 Q581.5527,453 582.1777,452.4219 L582.1777,455.1406 Z " fill="#000000"/><text fill="#000000" font-family="sans-serif" font-size="14" lengthAdjust="spacing" textLength="36.0254" x="599.709" y="454.3467">Farm</text><line style="stroke:#181818;stroke-width:0.5;" x1="512" x2="690.9434" y1="465.5" y2="465.5"/><rect fill="transparent" height="6" style="stroke:#C82930;stroke-width:1;" width="6" x="519" y="476.1484"/><text fill="#000000" font-family="sans-serif" font-size="14" lengthAdjust="spacing" textLength="68.25" x="531" y="482.4951">rect: Rect</text><rect fill="transparent" height="6" style="stroke:#C82930;stroke-width:1;" width="6" x="519" y="492.4453"/><text fill="#000000" font-family="sans-serif" font-size="14" lengthAdjust="spacing" textLength="121.0439" x="531" y="498.792">seed_planted: int</text><rect fill="transparent" height="6" style="stroke:#C82930;stroke-width:1;" width="6" x="519" y="508.7422"/><text fill="#000000" font-family="sans-serif" font-size="14" lengthAdjust="spacing" textLength="70.3828" x="531" y="515.0889">stalks: list</text><line style="stroke:#181818;stroke-width:0.5;" x1="512" x2="690.9434" y1="522.3906" y2="522.3906"/><ellipse cx="522" cy="536.0391" fill="#84BE84" rx="3" ry="3" style="stroke:#038048;stroke-width:1;"/><text fill="#000000" font-family="sans-serif" font-size="14" lengthAdjust="spacing" textLength="87.0488" x="531" y="539.3857">plant_seed()</text><ellipse cx="522" cy="552.3359" fill="#84BE84" rx="3" ry="3" style="stroke:#038048;stroke-width:1;"/><text fill="#000000" font-family="sans-serif" font-size="14" lengthAdjust="spacing" textLength="104.2207" x="531" y="555.6826">harvest_seed()</text><ellipse cx="522" cy="568.6328" fill="#84BE84" rx="3" ry="3" style="stroke:#038048;stroke-width:1;"/><text fill="#000000" font-family="sans-serif" font-size="14" lengthAdjust="spacing" textLength="154.9434" x="531" y="571.9795">draw(screen: Surface)</text></g><!--class PathfindingGrid--><g id="elem_PathfindingGrid"><rect codeLine="85" fill="#F1F1F1" height="162.0781" id="PathfindingGrid" rx="2.5" ry="2.5" style="stroke:#181818;stroke-width:0.5;" width="366.0127" x="1061.5" y="80.5"/><ellipse cx="1185.7603" cy="96.5" fill="#ADD1B2" rx="11" ry="11" style="stroke:#181818;stroke-width:1;"/><path d="M1188.729,102.1406 Q1188.1509,102.4375 1187.5103,102.5781 Q1186.8696,102.7344 1186.1665,102.7344 Q1183.6665,102.7344 1182.3384,101.0938 Q1181.0259,99.4375 1181.0259,96.3125 Q1181.0259,93.1875 1182.3384,91.5313 Q1183.6665,89.875 1186.1665,89.875 Q1186.8696,89.875 1187.5103,90.0313 Q1188.1665,90.1875 1188.729,90.4844 L1188.729,93.2031 Q1188.104,92.625 1187.5103,92.3594 Q1186.9165,92.0781 1186.2915,92.0781 Q1184.9478,92.0781 1184.2603,93.1563 Q1183.5728,94.2188 1183.5728,96.3125 Q1183.5728,98.4063 1184.2603,99.4844 Q1184.9478,100.5469 1186.2915,100.5469 Q1186.9165,100.5469 1187.5103,100.2813 Q1188.104,100 1188.729,99.4219 L1188.729,102.1406 Z " fill="#000000"/><text fill="#000000" font-family="sans-serif" font-size="14" lengthAdjust="spacing" textLength="108.9922" x="1206.2603" y="101.3467">PathfindingGrid</text><line style="stroke:#181818;stroke-width:0.5;" x1="1062.5" x2="1426.5127" y1="112.5" y2="112.5"/><rect fill="transparent" height="6" style="stroke:#C82930;stroke-width:1;" width="6" x="1069.5" y="123.1484"/><text fill="#000000" font-family="sans-serif" font-size="14" lengthAdjust="spacing" textLength="117.8105" x="1081.5" y="129.4951">grid: list[list[int]]</text><rect fill="transparent" height="6" style="stroke:#C82930;stroke-width:1;" width="6" x="1069.5" y="139.4453"/><text fill="#000000" font-family="sans-serif" font-size="14" lengthAdjust="spacing" textLength="151.252" x="1081.5" y="145.792">zombie_positions: set</text><line style="stroke:#181818;stroke-width:0.5;" x1="1062.5" x2="1426.5127" y1="153.0938" y2="153.0938"/><ellipse cx="1072.5" cy="166.7422" fill="#84BE84" rx="3" ry="3" style="stroke:#038048;stroke-width:1;"/><text fill="#000000" font-family="sans-serif" font-size="14" lengthAdjust="spacing" textLength="133.5605" x="1081.5" y="170.0889">update_obstacles()</text><ellipse cx="1072.5" cy="183.0391" fill="#84BE84" rx="3" ry="3" style="stroke:#038048;stroke-width:1;"/><text fill="#000000" font-family="sans-serif" font-size="14" lengthAdjust="spacing" textLength="340.0127" x="1081.5" y="186.3857">update_zombie_positions(zombies: list[Zombie])</text><ellipse cx="1072.5" cy="199.3359" fill="#84BE84" rx="3" ry="3" style="stroke:#038048;stroke-width:1;"/><text fill="#000000" font-family="sans-serif" font-size="14" lengthAdjust="spacing" textLength="210.4854" x="1081.5" y="202.6826">is_walkable(x: int, y: int): bool</text><ellipse cx="1072.5" cy="215.6328" fill="#84BE84" rx="3" ry="3" style="stroke:#038048;stroke-width:1;"/><text fill="#000000" font-family="sans-serif" font-size="14" lengthAdjust="spacing" textLength="327.2705" x="1081.5" y="218.9795">find_path(start_pos: tuple, end_pos: tuple): list</text><ellipse cx="1072.5" cy="231.9297" fill="#84BE84" rx="3" ry="3" style="stroke:#038048;stroke-width:1;"/><text fill="#000000" font-family="sans-serif" font-size="14" lengthAdjust="spacing" textLength="291.9424" x="1081.5" y="235.2764">find_nearest_walkable(x: int, y: int): tuple</text></g><!--class Bullet--><g id="elem_Bullet"><rect codeLine="95" fill="#F1F1F1" height="113.1875" id="Bullet" rx="2.5" ry="2.5" style="stroke:#181818;stroke-width:0.5;" width="177.8535" x="727.5" y="450"/><ellipse cx="791.9971" cy="466" fill="#ADD1B2" rx="11" ry="11" style="stroke:#181818;stroke-width:1;"/><path d="M794.9658,471.6406 Q794.3877,471.9375 793.7471,472.0781 Q793.1064,472.2344 792.4033,472.2344 Q789.9033,472.2344 788.5752,470.5938 Q787.2627,468.9375 787.2627,465.8125 Q787.2627,462.6875 788.5752,461.0313 Q789.9033,459.375 792.4033,459.375 Q793.1064,459.375 793.7471,459.5313 Q794.4033,459.6875 794.9658,459.9844 L794.9658,462.7031 Q794.3408,462.125 793.7471,461.8594 Q793.1533,461.5781 792.5283,461.5781 Q791.1846,461.5781 790.4971,462.6563 Q789.8096,463.7188 789.8096,465.8125 Q789.8096,467.9063 790.4971,468.9844 Q791.1846,470.0469 792.5283,470.0469 Q793.1533,470.0469 793.7471,469.7813 Q794.3408,469.5 794.9658,468.9219 L794.9658,471.6406 Z " fill="#000000"/><text fill="#000000" font-family="sans-serif" font-size="14" lengthAdjust="spacing" textLength="40.3594" x="812.4971" y="470.8467">Bullet</text><line style="stroke:#181818;stroke-width:0.5;" x1="728.5" x2="904.3535" y1="482" y2="482"/><rect fill="transparent" height="6" style="stroke:#C82930;stroke-width:1;" width="6" x="735.5" y="492.6484"/><text fill="#000000" font-family="sans-serif" font-size="14" lengthAdjust="spacing" textLength="69.7129" x="747.5" y="498.9951">speed: int</text><rect fill="transparent" height="6" style="stroke:#C82930;stroke-width:1;" width="6" x="735.5" y="508.9453"/><text fill="#000000" font-family="sans-serif" font-size="14" lengthAdjust="spacing" textLength="124.2432" x="747.5" y="515.292">max_distance: int</text><rect fill="transparent" height="6" style="stroke:#C82930;stroke-width:1;" width="6" x="735.5" y="525.2422"/><text fill="#000000" font-family="sans-serif" font-size="14" lengthAdjust="spacing" textLength="151.8535" x="747.5" y="531.5889">distance_traveled: int</text><line style="stroke:#181818;stroke-width:0.5;" x1="728.5" x2="904.3535" y1="538.8906" y2="538.8906"/><ellipse cx="738.5" cy="552.5391" fill="#84BE84" rx="3" ry="3" style="stroke:#038048;stroke-width:1;"/><text fill="#000000" font-family="sans-serif" font-size="14" lengthAdjust="spacing" textLength="60.252" x="747.5" y="555.8857">update()</text></g><!--class SpitProjectile--><g id="elem_SpitProjectile"><rect codeLine="102" fill="#F1F1F1" height="80.5938" id="SpitProjectile" rx="2.5" ry="2.5" style="stroke:#181818;stroke-width:0.5;" width="123.998" x="1430.5" y="871"/><ellipse cx="1445.5" cy="887" fill="#ADD1B2" rx="11" ry="11" style="stroke:#181818;stroke-width:1;"/><path d="M1448.4688,892.6406 Q1447.8906,892.9375 1447.25,893.0781 Q1446.6094,893.2344 1445.9063,893.2344 Q1443.4063,893.2344 1442.0781,891.5938 Q1440.7656,889.9375 1440.7656,886.8125 Q1440.7656,883.6875 1442.0781,882.0313 Q1443.4063,880.375 1445.9063,880.375 Q1446.6094,880.375 1447.25,880.5313 Q1447.9063,880.6875 1448.4688,880.9844 L1448.4688,883.7031 Q1447.8438,883.125 1447.25,882.8594 Q1446.6563,882.5781 1446.0313,882.5781 Q1444.6875,882.5781 1444,883.6563 Q1443.3125,884.7188 1443.3125,886.8125 Q1443.3125,888.9063 1444,889.9844 Q1444.6875,891.0469 1446.0313,891.0469 Q1446.6563,891.0469 1447.25,890.7813 Q1447.8438,890.5 1448.4688,889.9219 L1448.4688,892.6406 Z " fill="#000000"/><text fill="#000000" font-family="sans-serif" font-size="14" lengthAdjust="spacing" textLength="91.998" x="1459.5" y="891.8467">SpitProjectile</text><line style="stroke:#181818;stroke-width:0.5;" x1="1431.5" x2="1553.498" y1="903" y2="903"/><rect fill="transparent" height="6" style="stroke:#C82930;stroke-width:1;" width="6" x="1438.5" y="913.6484"/><text fill="#000000" font-family="sans-serif" font-size="14" lengthAdjust="spacing" textLength="69.7129" x="1450.5" y="919.9951">speed: int</text><line style="stroke:#181818;stroke-width:0.5;" x1="1431.5" x2="1553.498" y1="927.2969" y2="927.2969"/><ellipse cx="1441.5" cy="940.9453" fill="#84BE84" rx="3" ry="3" style="stroke:#038048;stroke-width:1;"/><text fill="#000000" font-family="sans-serif" font-size="14" lengthAdjust="spacing" textLength="60.252" x="1450.5" y="944.292">update()</text></g><!--class MuzzleFlash--><g id="elem_MuzzleFlash"><rect codeLine="107" fill="#F1F1F1" height="113.1875" id="MuzzleFlash" rx="2.5" ry="2.5" style="stroke:#181818;stroke-width:0.5;" width="137.1318" x="29" y="105"/><ellipse cx="53.131" cy="121" fill="#ADD1B2" rx="11" ry="11" style="stroke:#181818;stroke-width:1;"/><path d="M56.0997,126.6406 Q55.5216,126.9375 54.881,127.0781 Q54.2403,127.2344 53.5372,127.2344 Q51.0372,127.2344 49.7091,125.5938 Q48.3966,123.9375 48.3966,120.8125 Q48.3966,117.6875 49.7091,116.0313 Q51.0372,114.375 53.5372,114.375 Q54.2403,114.375 54.881,114.5313 Q55.5372,114.6875 56.0997,114.9844 L56.0997,117.7031 Q55.4747,117.125 54.881,116.8594 Q54.2872,116.5781 53.6622,116.5781 Q52.3185,116.5781 51.631,117.6563 Q50.9435,118.7188 50.9435,120.8125 Q50.9435,122.9063 51.631,123.9844 Q52.3185,125.0469 53.6622,125.0469 Q54.2872,125.0469 54.881,124.7813 Q55.4747,124.5 56.0997,123.9219 L56.0997,126.6406 Z " fill="#000000"/><text fill="#000000" font-family="sans-serif" font-size="14" lengthAdjust="spacing" textLength="84.8408" x="69.1601" y="125.8467">MuzzleFlash</text><line style="stroke:#181818;stroke-width:0.5;" x1="30" x2="165.1318" y1="137" y2="137"/><rect fill="transparent" height="6" style="stroke:#C82930;stroke-width:1;" width="6" x="37" y="147.6484"/><text fill="#000000" font-family="sans-serif" font-size="14" lengthAdjust="spacing" textLength="66.2266" x="49" y="153.9951">alpha: int</text><rect fill="transparent" height="6" style="stroke:#C82930;stroke-width:1;" width="6" x="37" y="163.9453"/><text fill="#000000" font-family="sans-serif" font-size="14" lengthAdjust="spacing" textLength="111.1318" x="49" y="170.292">spawn_time: int</text><rect fill="transparent" height="6" style="stroke:#C82930;stroke-width:1;" width="6" x="37" y="180.2422"/><text fill="#000000" font-family="sans-serif" font-size="14" lengthAdjust="spacing" textLength="86.3311" x="49" y="186.5889">duration: int</text><line style="stroke:#181818;stroke-width:0.5;" x1="30" x2="165.1318" y1="193.8906" y2="193.8906"/><ellipse cx="40" cy="207.5391" fill="#84BE84" rx="3" ry="3" style="stroke:#038048;stroke-width:1;"/><text fill="#000000" font-family="sans-serif" font-size="14" lengthAdjust="spacing" textLength="60.252" x="49" y="210.8857">update()</text></g><!--class BloodParticle--><g id="elem_BloodParticle"><rect codeLine="114" fill="#F1F1F1" height="113.1875" id="BloodParticle" rx="2.5" ry="2.5" style="stroke:#181818;stroke-width:0.5;" width="144.4873" x="201.5" y="105"/><ellipse cx="225.7786" cy="121" fill="#ADD1B2" rx="11" ry="11" style="stroke:#181818;stroke-width:1;"/><path d="M228.7474,126.6406 Q228.1692,126.9375 227.5286,127.0781 Q226.888,127.2344 226.1849,127.2344 Q223.6849,127.2344 222.3567,125.5938 Q221.0442,123.9375 221.0442,120.8125 Q221.0442,117.6875 222.3567,116.0313 Q223.6849,114.375 226.1849,114.375 Q226.888,114.375 227.5286,114.5313 Q228.1849,114.6875 228.7474,114.9844 L228.7474,117.7031 Q228.1224,117.125 227.5286,116.8594 Q226.9349,116.5781 226.3099,116.5781 Q224.9661,116.5781 224.2786,117.6563 Q223.5911,118.7188 223.5911,120.8125 Q223.5911,122.9063 224.2786,123.9844 Q224.9661,125.0469 226.3099,125.0469 Q226.9349,125.0469 227.5286,124.7813 Q228.1224,124.5 228.7474,123.9219 L228.7474,126.6406 Z " fill="#000000"/><text fill="#000000" font-family="sans-serif" font-size="14" lengthAdjust="spacing" textLength="91.8682" x="241.8405" y="125.8467">BloodParticle</text><line style="stroke:#181818;stroke-width:0.5;" x1="202.5" x2="344.9873" y1="137" y2="137"/><rect fill="transparent" height="6" style="stroke:#C82930;stroke-width:1;" width="6" x="209.5" y="147.6484"/><text fill="#000000" font-family="sans-serif" font-size="14" lengthAdjust="spacing" textLength="118.4873" x="221.5" y="153.9951">velocity: Vector2</text><rect fill="transparent" height="6" style="stroke:#C82930;stroke-width:1;" width="6" x="209.5" y="163.9453"/><text fill="#000000" font-family="sans-serif" font-size="14" lengthAdjust="spacing" textLength="89.79" x="221.5" y="170.292">gravity: float</text><rect fill="transparent" height="6" style="stroke:#C82930;stroke-width:1;" width="6" x="209.5" y="180.2422"/><text fill="#000000" font-family="sans-serif" font-size="14" lengthAdjust="spacing" textLength="80.3701" x="221.5" y="186.5889">lifetime: int</text><line style="stroke:#181818;stroke-width:0.5;" x1="202.5" x2="344.9873" y1="193.8906" y2="193.8906"/><ellipse cx="212.5" cy="207.5391" fill="#84BE84" rx="3" ry="3" style="stroke:#038048;stroke-width:1;"/><text fill="#000000" font-family="sans-serif" font-size="14" lengthAdjust="spacing" textLength="60.252" x="221.5" y="210.8857">update()</text></g><!--class HeartExplosion--><g id="elem_HeartExplosion"><rect codeLine="121" fill="#F1F1F1" height="113.1875" id="HeartExplosion" rx="2.5" ry="2.5" style="stroke:#181818;stroke-width:0.5;" width="180.9434" x="7" y="450"/><ellipse cx="41.2977" cy="466" fill="#ADD1B2" rx="11" ry="11" style="stroke:#181818;stroke-width:1;"/><path d="M44.2665,471.6406 Q43.6883,471.9375 43.0477,472.0781 Q42.4071,472.2344 41.704,472.2344 Q39.204,472.2344 37.8758,470.5938 Q36.5633,468.9375 36.5633,465.8125 Q36.5633,462.6875 37.8758,461.0313 Q39.204,459.375 41.704,459.375 Q42.4071,459.375 43.0477,459.5313 Q43.704,459.6875 44.2665,459.9844 L44.2665,462.7031 Q43.6415,462.125 43.0477,461.8594 Q42.454,461.5781 41.829,461.5781 Q40.4852,461.5781 39.7977,462.6563 Q39.1102,463.7188 39.1102,465.8125 Q39.1102,467.9063 39.7977,468.9844 Q40.4852,470.0469 41.829,470.0469 Q42.454,470.0469 43.0477,469.7813 Q43.6415,469.5 44.2665,468.9219 L44.2665,471.6406 Z " fill="#000000"/><text fill="#000000" font-family="sans-serif" font-size="14" lengthAdjust="spacing" textLength="106.0596" x="59.5861" y="470.8467">HeartExplosion</text><line style="stroke:#181818;stroke-width:0.5;" x1="8" x2="186.9434" y1="482" y2="482"/><rect fill="transparent" height="6" style="stroke:#C82930;stroke-width:1;" width="6" x="15" y="492.6484"/><text fill="#000000" font-family="sans-serif" font-size="14" lengthAdjust="spacing" textLength="89.8242" x="27" y="498.9951">particles: list</text><rect fill="transparent" height="6" style="stroke:#C82930;stroke-width:1;" width="6" x="15" y="508.9453"/><text fill="#000000" font-family="sans-serif" font-size="14" lengthAdjust="spacing" textLength="114.7686" x="27" y="515.292">light_beams: list</text><line style="stroke:#181818;stroke-width:0.5;" x1="8" x2="186.9434" y1="522.5938" y2="522.5938"/><ellipse cx="18" cy="536.2422" fill="#84BE84" rx="3" ry="3" style="stroke:#038048;stroke-width:1;"/><text fill="#000000" font-family="sans-serif" font-size="14" lengthAdjust="spacing" textLength="99.3262" x="27" y="539.5889">update(): bool</text><ellipse cx="18" cy="552.5391" fill="#84BE84" rx="3" ry="3" style="stroke:#038048;stroke-width:1;"/><text fill="#000000" font-family="sans-serif" font-size="14" lengthAdjust="spacing" textLength="154.9434" x="27" y="555.8857">draw(screen: Surface)</text></g><!--reverse link Player to Weapon--><g id="link_Player_Weapon"><path codeLine="128" d="M915.9206,326.4518 C931.5906,352.3018 941.38,368.42 956.26,392.98 " fill="transparent" id="Player-backto-Weapon" style="stroke:#181818;stroke-width:1;"/><polygon fill="#181818" points="909.7,316.19,909.3897,323.3944,915.9206,326.4518,916.2309,319.2474,909.7,316.19" style="stroke:#181818;stroke-width:1;"/><text fill="#000000" font-family="sans-serif" font-size="13" lengthAdjust="spacing" textLength="8.271" x="905.7385" y="335.6148">1</text><text fill="#000000" font-family="sans-serif" font-size="13" lengthAdjust="spacing" textLength="8.271" x="943.4154" y="381.9114">1</text></g><!--reverse link Player to PlayerHealth--><g id="link_Player_PlayerHealth"><path codeLine="129" d="M672.9736,262.9104 C614.4536,304.3104 555.04,347.03 493.5,393 C483.08,400.78 472.3,408.96 461.55,417.2 " fill="transparent" id="Player-backto-PlayerHealth" style="stroke:#181818;stroke-width:1;"/><polygon fill="#181818" points="682.77,255.98,675.5617,256.1798,672.9736,262.9104,680.182,262.7107,682.77,255.98" style="stroke:#181818;stroke-width:1;"/><text fill="#000000" font-family="sans-serif" font-size="13" lengthAdjust="spacing" textLength="8.271" x="666.8032" y="258.0865">1</text><text fill="#000000" font-family="sans-serif" font-size="13" lengthAdjust="spacing" textLength="8.271" x="462.1548" y="406.5435">1</text></g><!--link Player to Farm--><g id="link_Player_Farm"><path codeLine="130" d="M720.16,316.19 C694.58,357.01 671.3264,394.096 649.9164,428.256 " fill="transparent" id="Player-to-Farm" style="stroke:#181818;stroke-width:1;"/><polygon fill="#181818" points="646.73,433.34,654.8989,427.8383,649.3853,429.1034,648.1203,423.5898,646.73,433.34" style="stroke:#181818;stroke-width:1;"/><text fill="#000000" font-family="sans-serif" font-size="13" lengthAdjust="spacing" textLength="88.9878" x="696.5" y="359.0669">interacts with</text><text fill="#000000" font-family="sans-serif" font-size="13" lengthAdjust="spacing" textLength="8.271" x="707.61" y="335.6148">1</text><text fill="#000000" font-family="sans-serif" font-size="13" lengthAdjust="spacing" textLength="8.271" x="642.8047" y="422.4842">1</text></g><!--reverse link Zombie to TankZombie--><g id="link_Zombie_TankZombie"><path codeLine="132" d="M1130.3642,619.1986 C1097.8742,650.9886 1076.61,671.81 1051.09,696.78 " fill="transparent" id="Zombie-backto-TankZombie" style="stroke:#181818;stroke-width:1;"/><polygon fill="transparent" points="1143.23,606.61,1126.168,614.91,1134.5604,623.4872,1143.23,606.61" style="stroke:#181818;stroke-width:1;"/></g><!--reverse link Zombie to RunnerZombie--><g id="link_Zombie_RunnerZombie"><path codeLine="133" d="M1244.5,638.32 C1244.5,665.87 1244.5,675.55 1244.5,696.97 " fill="transparent" id="Zombie-backto-RunnerZombie" style="stroke:#181818;stroke-width:1;"/><polygon fill="transparent" points="1244.5,620.32,1238.5,638.32,1250.5,638.32,1244.5,620.32" style="stroke:#181818;stroke-width:1;"/></g><!--reverse link Zombie to SpitterZombie--><g id="link_Zombie_SpitterZombie"><path codeLine="134" d="M1358.9528,613.183 C1388.2828,640.273 1406.15,656.77 1432.13,680.76 " fill="transparent" id="Zombie-backto-SpitterZombie" style="stroke:#181818;stroke-width:1;"/><polygon fill="transparent" points="1345.73,600.97,1354.8818,617.5906,1363.0238,608.7754,1345.73,600.97" style="stroke:#181818;stroke-width:1;"/></g><!--link PathfindingGrid to Zombie--><g id="link_PathfindingGrid_Zombie"><path codeLine="136" d="M1244.5,242.92 C1244.5,287.57 1244.5,337.82 1244.5,386.8 " fill="transparent" id="PathfindingGrid-to-Zombie" style="stroke:#181818;stroke-width:1;"/><polygon fill="#181818" points="1244.5,392.8,1248.5,383.8,1244.5,387.8,1240.5,383.8,1244.5,392.8" style="stroke:#181818;stroke-width:1;"/><text fill="#000000" font-family="sans-serif" font-size="13" lengthAdjust="spacing" textLength="102.2544" x="1245.5" y="359.0669">tracks positions</text><text fill="#000000" font-family="sans-serif" font-size="13" lengthAdjust="spacing" textLength="8.271" x="1236.1673" y="262.6308">1</text><text fill="#000000" font-family="sans-serif" font-size="13" lengthAdjust="spacing" textLength="6.5" x="1238.3254" y="382.0983">*</text></g><!--link Player to Zombie--><g id="link_Player_Zombie"><path codeLine="137" d="M950.09,256.33 C1005.82,296.88 1070.48,345.77 1126.5,393 C1132.02,397.65 1133.118,398.5123 1138.708,403.4623 " fill="transparent" id="Player-to-Zombie" style="stroke:#181818;stroke-width:1;"/><polygon fill="#181818" points="1143.2,407.44,1139.1138,398.4788,1139.4567,404.1253,1133.8102,404.4681,1143.2,407.44" style="stroke:#181818;stroke-width:1;"/><text fill="#000000" font-family="sans-serif" font-size="13" lengthAdjust="spacing" textLength="36.5498" x="1086.5" y="359.0669">fights</text><text fill="#000000" font-family="sans-serif" font-size="13" lengthAdjust="spacing" textLength="8.271" x="958.4699" y="258.7302">1</text><text fill="#000000" font-family="sans-serif" font-size="13" lengthAdjust="spacing" textLength="6.5" x="1128.9105" y="396.0101">*</text></g><!--link Player to Bullet--><g id="link_Player_Bullet"><path codeLine="138" d="M816.5,316.19 C816.5,363.78 816.5,407.22 816.5,443.63 " fill="transparent" id="Player-to-Bullet" style="stroke:#181818;stroke-width:1;"/><polygon fill="#181818" points="816.5,449.63,820.5,440.63,816.5,444.63,812.5,440.63,816.5,449.63" style="stroke:#181818;stroke-width:1;"/><text fill="#000000" font-family="sans-serif" font-size="13" lengthAdjust="spacing" textLength="42.7896" x="817.5" y="359.0669">shoots</text><text fill="#000000" font-family="sans-serif" font-size="13" lengthAdjust="spacing" textLength="8.271" x="808.3154" y="335.6148">1</text><text fill="#000000" font-family="sans-serif" font-size="13" lengthAdjust="spacing" textLength="6.5" x="810.1738" y="438.8485">*</text></g><!--link SpitterZombie to SpitProjectile--><g id="link_SpitterZombie_SpitProjectile"><path codeLine="139" d="M1492.5,794.34 C1492.5,819.36 1492.5,842.27 1492.5,864.99 " fill="transparent" id="SpitterZombie-to-SpitProjectile" style="stroke:#181818;stroke-width:1;"/><polygon fill="#181818" points="1492.5,870.99,1496.5,861.99,1492.5,865.99,1488.5,861.99,1492.5,870.99" style="stroke:#181818;stroke-width:1;"/><text fill="#000000" font-family="sans-serif" font-size="13" lengthAdjust="spacing" textLength="42.7896" x="1493.5" y="837.0669">shoots</text><text fill="#000000" font-family="sans-serif" font-size="13" lengthAdjust="spacing" textLength="8.271" x="1484.0221" y="814.245">1</text><text fill="#000000" font-family="sans-serif" font-size="13" lengthAdjust="spacing" textLength="6.5" x="1486.0275" y="859.8515">*</text></g><!--SRC=[ZLPRRzCm57xlhx3sr6rqwZOXeGfuGEBoWZHj22JGP9qcfwsfOmVRQSU0_yxn9OcJTOoNflOvFfVFttUIGeArx4h2JpJiruIn6TiZr5ejs9Vm35lQYBLG8BceO8qBTjEO5HGOR8MMKbYX5JTGYiOkc51kRC72BTWr_GQ3hH7BtW_KMbBGbTIGDgfAzsPXwJpPIg7M2xRKMePjAjnnkz6EEr5XwtxAche4XzFZiC0VZQXvx6WQ7ro1TxVEH9S2b0-ZtVIuYtvAPZ0kvKsnOk3XNcbWptsvKriOHDL14yqfxkJFP584e2Ec2UYkaB0g8MBRjhqIXf9HnWoe0Iwna47t7dFh-bNTc683reFTuMPhWr3cSDT6VwUh4HBvw6O8UcYShi298WjHmHrLfjfgk-w-wcefC7NtByxKu3OyuKaHqEn0PZqqng2YUmMpHaSE9TvbFT7P1IDYkIVejwJ6suRwPdtj6mJfWxIUm_M8Gh3JekHT6ZjaWwycl-1FeBO361vKmLwn-TcBnsid- -My3tZTA8NcoP2NPnV_37d-l0zvKmld_YFc-TayqiuvABO4WPQbtgisvCLyFk-L69rw3ECwXoOEcGy1wvGrNOPnTd0PWxLO6TA9vML3OX1QzPQGToFSI094Mg5sGXLYwSTA9sa7M-HHPLEeTAEYK7BL3oxUQ_kXhBjste6fKXlZyKOeybe24JlJ4aqKkRKTSqzPyE3UEINSWDcX7MmzKSCLiMz5-g39-Dw8CfMpfhynpxVmGnNStWRBVRXoNcihF9HKZSMSybmlgSn2ueZbutFJk96w-HQPT1kF4FnxwXG8_6cKxJFsym7IlkeedZXfAVI2kQQM-8oXDtNhumooS4eHGJnCZsS9vtgKtZHIealWZ2QSPs19uK4L6ONQ7UuCx53s1pAA3EHqrOtGGsaEdVhOtDzBV4V_Mp60h3UGyQM6lHfHUwo1Gu7VIAtBAy9K55qrr8CkX2E0FbELsbmadi0kRFRJKOeLFl8wxH9yy09zUrTBxUTCob2dX3ORpLAiDuul4QgSzct0Z0oFiZnzbnoT7x6JsImyqrV90Ki-NtBxRFOwF8DWGsDee72MxGKvJj8OVFcRmlJJUx2Tp-21OJ19gToH7Bli9qVjkv78ISctbdLQUb1gxhpo41vqIQHUn6yCEnaEzTnpnC_sn5y0]--></g></svg>