<svg xmlns="http://www.w3.org/2000/svg" xmlns:xlink="http://www.w3.org/1999/xlink" contentStyleType="text/css" data-diagram-type="STATE" height="826px" preserveAspectRatio="none" style="width:883px;height:826px;background:#FFFFFF;" version="1.1" viewBox="0 0 883 826" width="883px" zoomAndPan="magnify"><title>Blood And Blooms - Game Process Flow</title><defs/><g><text fill="#000000" font-family="sans-serif" font-size="14" font-weight="bold" lengthAdjust="spacing" textLength="311.4111" x="278.8579" y="22.9951">Blood And Blooms - Game Process Flow</text><g id="menu"><rect fill="#F1F1F1" height="50" rx="12.5" ry="12.5" style="stroke:#181818;stroke-width:0.5;" width="96.3096" x="614.5" y="124.2969"/><line style="stroke:#181818;stroke-width:0.5;" x1="614.5" x2="710.8096" y1="150.5938" y2="150.5938"/><text fill="#000000" font-family="sans-serif" font-size="14" lengthAdjust="spacing" textLength="76.3096" x="624.5" y="142.292">Main Menu</text></g><g id="init"><rect fill="#F1F1F1" height="50" rx="12.5" ry="12.5" style="stroke:#181818;stroke-width:0.5;" width="151.5029" x="485.5" y="251.2969"/><line style="stroke:#181818;stroke-width:0.5;" x1="485.5" x2="637.0029" y1="277.5938" y2="277.5938"/><text fill="#000000" font-family="sans-serif" font-size="14" lengthAdjust="spacing" textLength="131.5029" x="495.5" y="269.292">Game Initialization</text></g><g id="game_loop"><rect fill="#F1F1F1" height="106.1406" rx="12.5" ry="12.5" style="stroke:#181818;stroke-width:0.5;" width="140.5098" x="305" y="362.2969"/><line style="stroke:#181818;stroke-width:0.5;" x1="305" x2="445.5098" y1="388.5938" y2="388.5938"/><text fill="#000000" font-family="sans-serif" font-size="14" lengthAdjust="spacing" textLength="117.8174" x="316.3462" y="380.292">Main Game Loop</text><text fill="#000000" font-family="sans-serif" font-size="12" lengthAdjust="spacing" textLength="56.6191" x="310" y="404.7324">Contains:</text><text fill="#000000" font-family="sans-serif" font-size="12" lengthAdjust="spacing" textLength="96.5215" x="310" y="418.7012">- Input Handling</text><text fill="#000000" font-family="sans-serif" font-size="12" lengthAdjust="spacing" textLength="97.2598" x="310" y="432.6699">- Sprite Updates</text><text fill="#000000" font-family="sans-serif" font-size="12" lengthAdjust="spacing" textLength="120.5098" x="310" y="446.6387">- Collision Detection</text><text fill="#000000" font-family="sans-serif" font-size="12" lengthAdjust="spacing" textLength="69.9609" x="310" y="460.6074">- Rendering</text></g><g id="wave"><rect fill="#F1F1F1" height="92.1719" rx="12.5" ry="12.5" style="stroke:#181818;stroke-width:0.5;" width="145.2969" x="7" y="552.2969"/><line style="stroke:#181818;stroke-width:0.5;" x1="7" x2="152.2969" y1="578.5938" y2="578.5938"/><text fill="#000000" font-family="sans-serif" font-size="14" lengthAdjust="spacing" textLength="95.9766" x="31.6602" y="570.292">Wave System</text><text fill="#000000" font-family="sans-serif" font-size="12" lengthAdjust="spacing" textLength="111.791" x="12" y="594.7324">Wave Progression:</text><text fill="#000000" font-family="sans-serif" font-size="12" lengthAdjust="spacing" textLength="110.9238" x="12" y="608.7012">1. Spawn Zombies</text><text fill="#000000" font-family="sans-serif" font-size="12" lengthAdjust="spacing" textLength="123.8262" x="12" y="622.6699">2. Increase Difficulty</text><text fill="#000000" font-family="sans-serif" font-size="12" lengthAdjust="spacing" textLength="125.2969" x="12" y="636.6387">3. Timeout Mechanic</text></g><g id="shop"><rect fill="#F1F1F1" height="78.2031" rx="12.5" ry="12.5" style="stroke:#181818;stroke-width:0.5;" width="142.3438" x="197.5" y="559.2969"/><line style="stroke:#181818;stroke-width:0.5;" x1="197.5" x2="339.8438" y1="585.5938" y2="585.5938"/><text fill="#000000" font-family="sans-serif" font-size="14" lengthAdjust="spacing" textLength="91.8682" x="222.7378" y="577.292">Shop System</text><text fill="#000000" font-family="sans-serif" font-size="12" lengthAdjust="spacing" textLength="56.5605" x="202.5" y="601.7324">Features:</text><text fill="#000000" font-family="sans-serif" font-size="12" lengthAdjust="spacing" textLength="122.3438" x="202.5" y="615.7012">- Weapon Purchases</text><text fill="#000000" font-family="sans-serif" font-size="12" lengthAdjust="spacing" textLength="96.4922" x="202.5" y="629.6699">- Money System</text></g><g id="farm"><rect fill="#F1F1F1" height="92.1719" rx="12.5" ry="12.5" style="stroke:#181818;stroke-width:0.5;" width="141.1133" x="376" y="552.2969"/><line style="stroke:#181818;stroke-width:0.5;" x1="376" x2="517.1133" y1="578.5938" y2="578.5938"/><text fill="#000000" font-family="sans-serif" font-size="14" lengthAdjust="spacing" textLength="92.6816" x="400.2158" y="570.292">Farm System</text><text fill="#000000" font-family="sans-serif" font-size="12" lengthAdjust="spacing" textLength="82.7813" x="381" y="594.7324">Farm Actions:</text><text fill="#000000" font-family="sans-serif" font-size="12" lengthAdjust="spacing" textLength="106.3242" x="381" y="608.7012">1. Plant Seeds (E)</text><text fill="#000000" font-family="sans-serif" font-size="12" lengthAdjust="spacing" textLength="121.1133" x="381" y="622.6699">2. Harvest Crops (E)</text><text fill="#000000" font-family="sans-serif" font-size="12" lengthAdjust="spacing" textLength="86.3379" x="381" y="636.6387">3. Earn Money</text></g><g id="combat"><rect fill="#F1F1F1" height="106.1406" rx="12.5" ry="12.5" style="stroke:#181818;stroke-width:0.5;" width="148.209" x="552.5" y="545.2969"/><line style="stroke:#181818;stroke-width:0.5;" x1="552.5" x2="700.709" y1="571.5938" y2="571.5938"/><text fill="#000000" font-family="sans-serif" font-size="14" lengthAdjust="spacing" textLength="111.5898" x="570.8096" y="563.292">Combat System</text><text fill="#000000" font-family="sans-serif" font-size="12" lengthAdjust="spacing" textLength="110.877" x="557.5" y="587.7324">Combat Elements:</text><text fill="#000000" font-family="sans-serif" font-size="12" lengthAdjust="spacing" textLength="128.209" x="557.5" y="601.7012">- Shooting Mechanics</text><text fill="#000000" font-family="sans-serif" font-size="12" lengthAdjust="spacing" textLength="69.293" x="557.5" y="615.6699">- Zombie AI</text><text fill="#000000" font-family="sans-serif" font-size="12" lengthAdjust="spacing" textLength="107.3438" x="557.5" y="629.6387">- Damage System</text><text fill="#000000" font-family="sans-serif" font-size="12" lengthAdjust="spacing" textLength="96.9551" x="557.5" y="643.6074">- Blood Particles</text></g><g id="death"><rect fill="#F1F1F1" height="92.1719" rx="12.5" ry="12.5" style="stroke:#181818;stroke-width:0.5;" width="149" x="613" y="728.2969"/><line style="stroke:#181818;stroke-width:0.5;" x1="613" x2="762" y1="754.5938" y2="754.5938"/><text fill="#000000" font-family="sans-serif" font-size="14" lengthAdjust="spacing" textLength="126.8545" x="624.0728" y="746.292">Death/Game Over</text><text fill="#000000" font-family="sans-serif" font-size="12" lengthAdjust="spacing" textLength="103.3359" x="618" y="770.7324">Death Sequence:</text><text fill="#000000" font-family="sans-serif" font-size="12" lengthAdjust="spacing" textLength="109.9863" x="618" y="784.7012">1. Heart Explosion</text><text fill="#000000" font-family="sans-serif" font-size="12" lengthAdjust="spacing" textLength="129" x="618" y="798.6699">2. Game Over Screen</text><text fill="#000000" font-family="sans-serif" font-size="12" lengthAdjust="spacing" textLength="88.0664" x="618" y="812.6387">3. Restart/Quit</text></g><ellipse cx="662.5" cy="53.2969" fill="#222222" rx="10" ry="10" style="stroke:#222222;stroke-width:1;"/><!--link *start* to menu--><g id="link_*start*_menu"><path d="M662.5,63.3069 C662.5,77.1869 662.5,98.2669 662.5,118.1369 " fill="transparent" id="*start*-to-menu" style="stroke:#181818;stroke-width:1;"/><polygon fill="#181818" points="662.5,124.1369,666.5,115.1369,662.5,119.1369,658.5,115.1369,662.5,124.1369" style="stroke:#181818;stroke-width:1;"/></g><!--link menu to init--><g id="link_menu_init"><path d="M628.97,174.4469 C618.4,183.0869 607.22,193.4069 598.5,204.2969 C587.12,218.5069 580.1597,231.2942 573.6697,245.7342 " fill="transparent" id="menu-to-init" style="stroke:#181818;stroke-width:1;"/><polygon fill="#181818" points="571.21,251.2069,578.5479,244.6377,573.2597,246.6463,571.2511,241.3581,571.21,251.2069" style="stroke:#181818;stroke-width:1;"/><text fill="#000000" font-family="sans-serif" font-size="13" lengthAdjust="spacing" textLength="137.9092" x="599.5" y="217.3638">"Player Starts Game"</text></g><!--link init to game_loop--><g id="link_init_game_loop"><path d="M528.68,301.4769 C505.84,318.2969 479.3407,337.8081 450.9707,358.7081 " fill="transparent" id="init-to-game_loop" style="stroke:#181818;stroke-width:1;"/><polygon fill="#181818" points="446.14,362.2669,455.7585,360.1492,450.1656,359.3013,451.0135,353.7083,446.14,362.2669" style="stroke:#181818;stroke-width:1;"/></g><!--link game_loop to wave--><g id="link_game_loop_wave"><path d="M304.93,418.7369 C243.25,424.7269 155.63,443.2269 103.5,498.2969 C89.88,512.6869 84.4681,527.4915 81.6881,546.2815 " fill="transparent" id="game_loop-to-wave" style="stroke:#181818;stroke-width:1;"/><polygon fill="#181818" points="80.81,552.2169,86.0841,543.8992,81.5418,547.2707,78.1703,542.7284,80.81,552.2169" style="stroke:#181818;stroke-width:1;"/><text fill="#000000" font-family="sans-serif" font-size="13" lengthAdjust="spacing" textLength="53.5171" x="104.5" y="511.3638">Triggers</text></g><!--link game_loop to shop--><g id="link_game_loop_shop"><path d="M304.98,424.5269 C258.59,434.0169 201.15,454.4169 171.5,498.2969 C156.28,520.8269 168.5482,539.2133 192.4182,556.6833 " fill="transparent" id="game_loop-to-shop" style="stroke:#181818;stroke-width:1;"/><polygon fill="#181818" points="197.26,560.2269,192.3597,551.6836,193.2252,557.2739,187.6349,558.1393,197.26,560.2269" style="stroke:#181818;stroke-width:1;"/><text fill="#000000" font-family="sans-serif" font-size="13" lengthAdjust="spacing" textLength="119.0947" x="172.5" y="511.3638">"Player Presses B"</text></g><!--link shop to game_loop--><g id="link_shop_game_loop"><path d="M291.05,559.1469 C306.6,532.8569 324.3962,502.7316 341.4962,473.8116 " fill="transparent" id="shop-to-game_loop" style="stroke:#181818;stroke-width:1;"/><polygon fill="#181818" points="344.55,468.6469,336.5261,474.3581,342.0052,472.9508,343.4124,478.4298,344.55,468.6469" style="stroke:#181818;stroke-width:1;"/><text fill="#000000" font-family="sans-serif" font-size="13" lengthAdjust="spacing" textLength="73.4043" x="326.5" y="511.3638">"Exit Shop"</text></g><!--link game_loop to farm--><g id="link_game_loop_farm"><path d="M399.13,468.5469 C403.38,478.3769 407.67,488.6069 411.5,498.2969 C418.41,515.7569 423.4458,529.531 429.3658,546.521 " fill="transparent" id="game_loop-to-farm" style="stroke:#181818;stroke-width:1;"/><polygon fill="#181818" points="431.34,552.1869,432.1559,542.3719,429.6948,547.4653,424.6014,545.0042,431.34,552.1869" style="stroke:#181818;stroke-width:1;"/><text fill="#000000" font-family="sans-serif" font-size="13" lengthAdjust="spacing" textLength="125.1631" x="419.5" y="511.3638">"Player Near Farm"</text></g><!--link game_loop to combat--><g id="link_game_loop_combat"><path d="M446.03,439.3069 C480.75,452.8769 521.84,472.5069 553.5,498.2969 C569.48,511.3069 580.3191,523.6756 591.9491,540.1456 " fill="transparent" id="game_loop-to-combat" style="stroke:#181818;stroke-width:1;"/><polygon fill="#181818" points="595.41,545.0469,593.4861,535.3878,592.5259,540.9625,586.9511,540.0023,595.41,545.0469" style="stroke:#181818;stroke-width:1;"/><text fill="#000000" font-family="sans-serif" font-size="13" lengthAdjust="spacing" textLength="104.2603" x="572.5" y="511.3638">"Player Actions"</text></g><!--link combat to death--><g id="link_combat_death"><path d="M606.67,651.4669 C603.63,666.9669 603.28,683.6969 609.5,698.2969 C614.14,709.1869 617.2127,714.7823 625.2527,723.7823 " fill="transparent" id="combat-to-death" style="stroke:#181818;stroke-width:1;"/><polygon fill="#181818" points="629.25,728.2569,626.2371,718.8802,625.9189,724.5281,620.271,724.2099,629.25,728.2569" style="stroke:#181818;stroke-width:1;"/><text fill="#000000" font-family="sans-serif" font-size="13" lengthAdjust="spacing" textLength="126.6611" x="610.5" y="694.3638">"Player Health = 0"</text></g><!--link death to menu--><g id="link_death_menu"><path d="M724.32,728.2869 C730.79,718.7969 736.91,708.5469 741.5,698.2969 C759.93,657.1669 763.5,644.3669 763.5,599.2969 C763.5,275.2969 763.5,275.2969 763.5,275.2969 C763.5,242.2569 761.12,230.8769 741.5,204.2969 C732.82,192.5369 725.7464,185.8288 713.6764,177.6988 " fill="transparent" id="death-to-menu" style="stroke:#181818;stroke-width:1;"/><polygon fill="#181818" points="708.7,174.3469,713.9299,182.6924,712.847,177.1402,718.3992,176.0572,708.7,174.3469" style="stroke:#181818;stroke-width:1;"/><text fill="#000000" font-family="sans-serif" font-size="13" lengthAdjust="spacing" textLength="110.627" x="764.5" y="419.8638">"Player Restarts"</text></g><!--SRC=[NPHRZzCm48NVyoj6UGAaThcyLGAfsmjTYKBPBbe9X919fgqbnmwsqztkh-VOYTEqBrKytzW-SsPSBxrYkbN6b3JLPVog78teiwYODjOKx1mjbNdACkU5PyhNGcfQisvo4eugV2GIzznfwQLGyaLuQNJCaGXTx8w9Nuof8zvZzGVtrYddKHoPjYVdkOe9JrWdjZsOUiZSuRnlAMmrP3ki4vkPwg_mGrh4IE9p5lvm4uLzExAD6MM8PTclDxzfDFhKbXf-uYeKHHFADqgSsDBM2-jTh2pF8Wj9vzAo_XERPaPx-E0c5z4HlAiRJokXIoNr_WfkQokXz4TTGh2xWZEZb7GmdERikGZMNsNSioxPXcC786WCxYBZmShzdgtBkdLi0WPWRp41E6wImBinf8WdJJzXeEH-m_inz1UMXMEQozrE5etofqG_ZEb1LcnGtvgBWz2ok1OIMZbmT1CkPaUtUTQH9VhH83f9WH4zigXHzAQnE1FPPx8scazTlzleHKF2HOjdj2aCL7uj9KpEGCfN5fR2TELPH-AeJQFFaDC5uGmsQ9p9N3fwjNYT2BnP2NjavsbcJNt1uCn2MDqAlXRI3kb0IdTddlMac-o5OiocXvgUZ49nngFdlUTkIDi6qlHk69oBIkpJynk2zazYWp6NXOBJYGMPyQKCLAvOA0G-qjiyIoo-C5Zphs5TyAIFmpMaMrJmN2iJHgr7iAr_aRJ5RF6PmRPx-8cDDzyR_B-qyVHE1rgwB9V_1m00]--></g></svg>