<svg xmlns="http://www.w3.org/2000/svg" xmlns:xlink="http://www.w3.org/1999/xlink" contentStyleType="text/css" data-diagram-type="SEQUENCE" height="1134px" preserveAspectRatio="none" style="width:1005px;height:1134px;background:#FFFFFF;" version="1.1" viewBox="0 0 1005 1134" width="1005px" zoomAndPan="magnify"><title>Blood And Blooms - Main Game Sequence</title><defs/><g><text fill="#000000" font-family="sans-serif" font-size="14" font-weight="bold" lengthAdjust="spacing" textLength="328.2207" x="340.0354" y="27.9951">Blood And Blooms - Main Game Sequence</text><rect fill="transparent" height="666.0547" style="stroke:#000000;stroke-width:1.5;" width="989.2915" x="10" y="281.2578"/><rect fill="transparent" height="133.6641" style="stroke:#000000;stroke-width:1.5;" width="969.2915" x="20" y="363.6563"/><rect fill="transparent" height="133.6641" style="stroke:#000000;stroke-width:1.5;" width="969.2915" x="20" y="511.3203"/><rect fill="transparent" height="133.6641" style="stroke:#000000;stroke-width:1.5;" width="635.7773" x="353.5142" y="658.9844"/><rect fill="transparent" height="104.5313" style="stroke:#000000;stroke-width:1.5;" width="969.2915" x="20" y="806.6484"/><rect fill="transparent" height="75.3984" style="stroke:#000000;stroke-width:1.5;" width="969.2915" x="20" y="961.3125"/><g><title>Player</title><rect fill="transparent" height="935.1172" width="8" x="50.7827" y="118.5938"/><line style="stroke:#181818;stroke-width:0.5;stroke-dasharray:5.0,5.0;" x1="54" x2="54" y1="118.5938" y2="1053.7109"/></g><g><title>Game Engine</title><rect fill="transparent" height="935.1172" width="8" x="154.3252" y="118.5938"/><line style="stroke:#181818;stroke-width:0.5;stroke-dasharray:5.0,5.0;" x1="158.27" x2="158.27" y1="118.5938" y2="1053.7109"/></g><g><title>Player Character</title><rect fill="transparent" height="935.1172" width="8" x="283.9473" y="118.5938"/><line style="stroke:#181818;stroke-width:0.5;stroke-dasharray:5.0,5.0;" x1="287.3804" x2="287.3804" y1="118.5938" y2="1053.7109"/></g><g><title>Zombie AI</title><rect fill="transparent" height="935.1172" width="8" x="402.1841" y="118.5938"/><line style="stroke:#181818;stroke-width:0.5;stroke-dasharray:5.0,5.0;" x1="405.5142" x2="405.5142" y1="118.5938" y2="1053.7109"/></g><g><title>Farm System</title><rect fill="transparent" height="935.1172" width="8" x="508.1948" y="118.5938"/><line style="stroke:#181818;stroke-width:0.5;stroke-dasharray:5.0,5.0;" x1="511.854" x2="511.854" y1="118.5938" y2="1053.7109"/></g><g><title>Weapon System</title><rect fill="transparent" height="935.1172" width="8" x="635.5439" y="118.5938"/><line style="stroke:#181818;stroke-width:0.5;stroke-dasharray:5.0,5.0;" x1="639.5356" x2="639.5356" y1="118.5938" y2="1053.7109"/></g><g><title>Wave Manager</title><rect fill="transparent" height="935.1172" width="8" x="769.1206" y="118.5938"/><line style="stroke:#181818;stroke-width:0.5;stroke-dasharray:5.0,5.0;" x1="772.5522" x2="772.5522" y1="118.5938" y2="1053.7109"/></g><g><title>UI System</title><rect fill="transparent" height="935.1172" width="8" x="932.7754" y="118.5938"/><line style="stroke:#181818;stroke-width:0.5;stroke-dasharray:5.0,5.0;" x1="936.2593" x2="936.2593" y1="118.5938" y2="1053.7109"/></g><text fill="#000000" font-family="sans-serif" font-size="14" lengthAdjust="spacing" textLength="43.5654" x="30" y="115.292">Player</text><ellipse cx="54.7827" cy="50.7969" fill="#E2E2F0" rx="8" ry="8" style="stroke:#181818;stroke-width:0.5;"/><path d="M54.7827,58.7969 L54.7827,85.7969 M41.7827,66.7969 L67.7827,66.7969 M54.7827,85.7969 L41.7827,100.7969 M54.7827,85.7969 L67.7827,100.7969 " fill="transparent" style="stroke:#181818;stroke-width:0.5;"/><text fill="#000000" font-family="sans-serif" font-size="14" lengthAdjust="spacing" textLength="43.5654" x="30" y="1065.7061">Player</text><ellipse cx="54.7827" cy="1077.5078" fill="#E2E2F0" rx="8" ry="8" style="stroke:#181818;stroke-width:0.5;"/><path d="M54.7827,1085.5078 L54.7827,1112.5078 M41.7827,1093.5078 L67.7827,1093.5078 M54.7827,1112.5078 L41.7827,1127.5078 M54.7827,1112.5078 L67.7827,1127.5078 " fill="transparent" style="stroke:#181818;stroke-width:0.5;"/><rect fill="#E2E2F0" height="30.2969" rx="2.5" ry="2.5" style="stroke:#181818;stroke-width:0.5;" width="108.1104" x="104.27" y="87.2969"/><text fill="#000000" font-family="sans-serif" font-size="14" lengthAdjust="spacing" textLength="94.1104" x="111.27" y="107.292">Game Engine</text><rect fill="#E2E2F0" height="30.2969" rx="2.5" ry="2.5" style="stroke:#181818;stroke-width:0.5;" width="108.1104" x="104.27" y="1052.7109"/><text fill="#000000" font-family="sans-serif" font-size="14" lengthAdjust="spacing" textLength="94.1104" x="111.27" y="1072.7061">Game Engine</text><rect fill="#E2E2F0" height="30.2969" rx="2.5" ry="2.5" style="stroke:#181818;stroke-width:0.5;" width="131.1338" x="222.3804" y="87.2969"/><text fill="#000000" font-family="sans-serif" font-size="14" lengthAdjust="spacing" textLength="117.1338" x="229.3804" y="107.292">Player Character</text><rect fill="#E2E2F0" height="30.2969" rx="2.5" ry="2.5" style="stroke:#181818;stroke-width:0.5;" width="131.1338" x="222.3804" y="1052.7109"/><text fill="#000000" font-family="sans-serif" font-size="14" lengthAdjust="spacing" textLength="117.1338" x="229.3804" y="1072.7061">Player Character</text><rect fill="#E2E2F0" height="30.2969" rx="2.5" ry="2.5" style="stroke:#181818;stroke-width:0.5;" width="85.3398" x="363.5142" y="87.2969"/><text fill="#000000" font-family="sans-serif" font-size="14" lengthAdjust="spacing" textLength="71.3398" x="370.5142" y="107.292">Zombie AI</text><rect fill="#E2E2F0" height="30.2969" rx="2.5" ry="2.5" style="stroke:#181818;stroke-width:0.5;" width="85.3398" x="363.5142" y="1052.7109"/><text fill="#000000" font-family="sans-serif" font-size="14" lengthAdjust="spacing" textLength="71.3398" x="370.5142" y="1072.7061">Zombie AI</text><rect fill="#E2E2F0" height="30.2969" rx="2.5" ry="2.5" style="stroke:#181818;stroke-width:0.5;" width="106.6816" x="458.854" y="87.2969"/><text fill="#000000" font-family="sans-serif" font-size="14" lengthAdjust="spacing" textLength="92.6816" x="465.854" y="107.292">Farm System</text><rect fill="#E2E2F0" height="30.2969" rx="2.5" ry="2.5" style="stroke:#181818;stroke-width:0.5;" width="106.6816" x="458.854" y="1052.7109"/><text fill="#000000" font-family="sans-serif" font-size="14" lengthAdjust="spacing" textLength="92.6816" x="465.854" y="1072.7061">Farm System</text><rect fill="#E2E2F0" height="30.2969" rx="2.5" ry="2.5" style="stroke:#181818;stroke-width:0.5;" width="128.0166" x="575.5356" y="87.2969"/><text fill="#000000" font-family="sans-serif" font-size="14" lengthAdjust="spacing" textLength="114.0166" x="582.5356" y="107.292">Weapon System</text><rect fill="#E2E2F0" height="30.2969" rx="2.5" ry="2.5" style="stroke:#181818;stroke-width:0.5;" width="128.0166" x="575.5356" y="1052.7109"/><text fill="#000000" font-family="sans-serif" font-size="14" lengthAdjust="spacing" textLength="114.0166" x="582.5356" y="1072.7061">Weapon System</text><rect fill="#E2E2F0" height="30.2969" rx="2.5" ry="2.5" style="stroke:#181818;stroke-width:0.5;" width="119.1367" x="713.5522" y="87.2969"/><text fill="#000000" font-family="sans-serif" font-size="14" lengthAdjust="spacing" textLength="105.1367" x="720.5522" y="107.292">Wave Manager</text><rect fill="#E2E2F0" height="30.2969" rx="2.5" ry="2.5" style="stroke:#181818;stroke-width:0.5;" width="119.1367" x="713.5522" y="1052.7109"/><text fill="#000000" font-family="sans-serif" font-size="14" lengthAdjust="spacing" textLength="105.1367" x="720.5522" y="1072.7061">Wave Manager</text><rect fill="#E2E2F0" height="30.2969" rx="2.5" ry="2.5" style="stroke:#181818;stroke-width:0.5;" width="85.0322" x="894.2593" y="87.2969"/><text fill="#000000" font-family="sans-serif" font-size="14" lengthAdjust="spacing" textLength="71.0322" x="901.2593" y="107.292">UI System</text><rect fill="#E2E2F0" height="30.2969" rx="2.5" ry="2.5" style="stroke:#181818;stroke-width:0.5;" width="85.0322" x="894.2593" y="1052.7109"/><text fill="#000000" font-family="sans-serif" font-size="14" lengthAdjust="spacing" textLength="71.0322" x="901.2593" y="1072.7061">UI System</text><polygon fill="#181818" points="146.3252,145.7266,156.3252,149.7266,146.3252,153.7266,150.3252,149.7266" style="stroke:#181818;stroke-width:1;"/><line style="stroke:#181818;stroke-width:1;" x1="54.7827" x2="152.3252" y1="149.7266" y2="149.7266"/><text fill="#000000" font-family="sans-serif" font-size="13" lengthAdjust="spacing" textLength="79.5425" x="61.7827" y="144.6606">Starts game</text><polygon fill="#181818" points="924.7754,174.8594,934.7754,178.8594,924.7754,182.8594,928.7754,178.8594" style="stroke:#181818;stroke-width:1;"/><line style="stroke:#181818;stroke-width:1;" x1="158.3252" x2="930.7754" y1="178.8594" y2="178.8594"/><text fill="#000000" font-family="sans-serif" font-size="13" lengthAdjust="spacing" textLength="110.7603" x="165.3252" y="173.7935">Show start menu</text><polygon fill="#181818" points="169.3252,203.9922,159.3252,207.9922,169.3252,211.9922,165.3252,207.9922" style="stroke:#181818;stroke-width:1;"/><line style="stroke:#181818;stroke-width:1;" x1="163.3252" x2="935.7754" y1="207.9922" y2="207.9922"/><text fill="#000000" font-family="sans-serif" font-size="13" lengthAdjust="spacing" textLength="128.9082" x="175.3252" y="202.9263">Player presses start</text><polygon fill="#181818" points="275.9473,233.125,285.9473,237.125,275.9473,241.125,279.9473,237.125" style="stroke:#181818;stroke-width:1;"/><line style="stroke:#181818;stroke-width:1;" x1="158.3252" x2="281.9473" y1="237.125" y2="237.125"/><text fill="#000000" font-family="sans-serif" font-size="13" lengthAdjust="spacing" textLength="99.4043" x="165.3252" y="232.0591">Initialize player</text><polygon fill="#181818" points="761.1206,262.2578,771.1206,266.2578,761.1206,270.2578,765.1206,266.2578" style="stroke:#181818;stroke-width:1;"/><line style="stroke:#181818;stroke-width:1;" x1="158.3252" x2="767.1206" y1="266.2578" y2="266.2578"/><text fill="#000000" font-family="sans-serif" font-size="13" lengthAdjust="spacing" textLength="121.3101" x="165.3252" y="261.1919">Start wave system</text><path d="M10,281.2578 L86.624,281.2578 L86.624,288.3906 L76.624,298.3906 L10,298.3906 L10,281.2578 " fill="#EEEEEE" style="stroke:#000000;stroke-width:1.5;"/><rect fill="transparent" height="666.0547" style="stroke:#000000;stroke-width:1.5;" width="989.2915" x="10" y="281.2578"/><text fill="#000000" font-family="sans-serif" font-size="13" font-weight="bold" lengthAdjust="spacing" textLength="31.624" x="25" y="294.3247">loop</text><text fill="#000000" font-family="sans-serif" font-size="11" font-weight="bold" lengthAdjust="spacing" textLength="79.2559" x="101.624" y="293.4683">[Game Loop]</text><polygon fill="#181818" points="275.9473,315.5234,285.9473,319.5234,275.9473,323.5234,279.9473,319.5234" style="stroke:#181818;stroke-width:1;"/><line style="stroke:#181818;stroke-width:1;" x1="54.7827" x2="281.9473" y1="319.5234" y2="319.5234"/><text fill="#000000" font-family="sans-serif" font-size="13" lengthAdjust="spacing" textLength="95.9194" x="61.7827" y="314.4575">Moves (WASD)</text><polygon fill="#181818" points="275.9473,344.6563,285.9473,348.6563,275.9473,352.6563,279.9473,348.6563" style="stroke:#181818;stroke-width:1;"/><line style="stroke:#181818;stroke-width:1;" x1="54.7827" x2="281.9473" y1="348.6563" y2="348.6563"/><text fill="#000000" font-family="sans-serif" font-size="13" lengthAdjust="spacing" textLength="89.8447" x="61.7827" y="343.5903">Aims (mouse)</text><path d="M20,363.6563 L84.4429,363.6563 L84.4429,370.7891 L74.4429,380.7891 L20,380.7891 L20,363.6563 " fill="#EEEEEE" style="stroke:#000000;stroke-width:1.5;"/><rect fill="transparent" height="133.6641" style="stroke:#000000;stroke-width:1.5;" width="969.2915" x="20" y="363.6563"/><text fill="#000000" font-family="sans-serif" font-size="13" font-weight="bold" lengthAdjust="spacing" textLength="19.4429" x="35" y="376.7231">alt</text><text fill="#000000" font-family="sans-serif" font-size="11" font-weight="bold" lengthAdjust="spacing" textLength="92.9092" x="99.4429" y="375.8667">[Fires weapon]</text><polygon fill="#181818" points="275.9473,397.9219,285.9473,401.9219,275.9473,405.9219,279.9473,401.9219" style="stroke:#181818;stroke-width:1;"/><line style="stroke:#181818;stroke-width:1;" x1="54.7827" x2="281.9473" y1="401.9219" y2="401.9219"/><text fill="#000000" font-family="sans-serif" font-size="13" lengthAdjust="spacing" textLength="58.0938" x="61.7827" y="396.856">Left click</text><polygon fill="#181818" points="627.5439,427.0547,637.5439,431.0547,627.5439,435.0547,631.5439,431.0547" style="stroke:#181818;stroke-width:1;"/><line style="stroke:#181818;stroke-width:1;" x1="287.9473" x2="633.5439" y1="431.0547" y2="431.0547"/><text fill="#000000" font-family="sans-serif" font-size="13" lengthAdjust="spacing" textLength="78.438" x="294.9473" y="425.9888">Shoot bullet</text><polygon fill="#181818" points="417.1841,456.1875,407.1841,460.1875,417.1841,464.1875,413.1841,460.1875" style="stroke:#181818;stroke-width:1;"/><line style="stroke:#181818;stroke-width:1;" x1="411.1841" x2="638.5439" y1="460.1875" y2="460.1875"/><text fill="#000000" font-family="sans-serif" font-size="13" lengthAdjust="spacing" textLength="126.5977" x="423.1841" y="455.1216">Check hit detection</text><polygon fill="#181818" points="924.7754,485.3203,934.7754,489.3203,924.7754,493.3203,928.7754,489.3203" style="stroke:#181818;stroke-width:1;"/><line style="stroke:#181818;stroke-width:1;" x1="406.1841" x2="930.7754" y1="489.3203" y2="489.3203"/><text fill="#000000" font-family="sans-serif" font-size="13" lengthAdjust="spacing" textLength="143.7998" x="413.1841" y="484.2544">Update zombie health</text><path d="M20,511.3203 L84.4429,511.3203 L84.4429,518.4531 L74.4429,528.4531 L20,528.4531 L20,511.3203 " fill="#EEEEEE" style="stroke:#000000;stroke-width:1.5;"/><rect fill="transparent" height="133.6641" style="stroke:#000000;stroke-width:1.5;" width="969.2915" x="20" y="511.3203"/><text fill="#000000" font-family="sans-serif" font-size="13" font-weight="bold" lengthAdjust="spacing" textLength="19.4429" x="35" y="524.3872">alt</text><text fill="#000000" font-family="sans-serif" font-size="11" font-weight="bold" lengthAdjust="spacing" textLength="106.627" x="99.4429" y="523.5308">[Plants/harvests]</text><polygon fill="#181818" points="275.9473,545.5859,285.9473,549.5859,275.9473,553.5859,279.9473,549.5859" style="stroke:#181818;stroke-width:1;"/><line style="stroke:#181818;stroke-width:1;" x1="54.7827" x2="281.9473" y1="549.5859" y2="549.5859"/><text fill="#000000" font-family="sans-serif" font-size="13" lengthAdjust="spacing" textLength="130.2095" x="61.7827" y="544.52">Presses E near farm</text><polygon fill="#181818" points="500.1948,574.7188,510.1948,578.7188,500.1948,582.7188,504.1948,578.7188" style="stroke:#181818;stroke-width:1;"/><line style="stroke:#181818;stroke-width:1;" x1="287.9473" x2="506.1948" y1="578.7188" y2="578.7188"/><text fill="#000000" font-family="sans-serif" font-size="13" lengthAdjust="spacing" textLength="119.0757" x="294.9473" y="573.6528">Plant/harvest crop</text><polygon fill="#181818" points="924.7754,603.8516,934.7754,607.8516,924.7754,611.8516,928.7754,607.8516" style="stroke:#181818;stroke-width:1;"/><line style="stroke:#181818;stroke-width:1;" x1="512.1948" x2="930.7754" y1="607.8516" y2="607.8516"/><text fill="#000000" font-family="sans-serif" font-size="13" lengthAdjust="spacing" textLength="130.5649" x="519.1948" y="602.7856">Update farm visuals</text><polygon fill="#181818" points="924.7754,632.9844,934.7754,636.9844,924.7754,640.9844,928.7754,636.9844" style="stroke:#181818;stroke-width:1;"/><line style="stroke:#181818;stroke-width:1;" x1="512.1948" x2="930.7754" y1="636.9844" y2="636.9844"/><text fill="#000000" font-family="sans-serif" font-size="13" lengthAdjust="spacing" textLength="155.8921" x="519.1948" y="631.9185">Add money if harvested</text><path d="M353.5142,658.9844 L417.957,658.9844 L417.957,666.1172 L407.957,676.1172 L353.5142,676.1172 L353.5142,658.9844 " fill="#EEEEEE" style="stroke:#000000;stroke-width:1.5;"/><rect fill="transparent" height="133.6641" style="stroke:#000000;stroke-width:1.5;" width="635.7773" x="353.5142" y="658.9844"/><text fill="#000000" font-family="sans-serif" font-size="13" font-weight="bold" lengthAdjust="spacing" textLength="19.4429" x="368.5142" y="672.0513">alt</text><text fill="#000000" font-family="sans-serif" font-size="11" font-weight="bold" lengthAdjust="spacing" textLength="121.9399" x="432.957" y="671.1948">[Wave progression]</text><polygon fill="#181818" points="417.1841,693.25,407.1841,697.25,417.1841,701.25,413.1841,697.25" style="stroke:#181818;stroke-width:1;"/><line style="stroke:#181818;stroke-width:1;" x1="411.1841" x2="772.1206" y1="697.25" y2="697.25"/><text fill="#000000" font-family="sans-serif" font-size="13" lengthAdjust="spacing" textLength="101.5498" x="423.1841" y="692.1841">Spawn zombies</text><polygon fill="#181818" points="761.1206,722.3828,771.1206,726.3828,761.1206,730.3828,765.1206,726.3828" style="stroke:#181818;stroke-width:1;"/><line style="stroke:#181818;stroke-width:1;" x1="406.1841" x2="767.1206" y1="726.3828" y2="726.3828"/><text fill="#000000" font-family="sans-serif" font-size="13" lengthAdjust="spacing" textLength="94.9038" x="413.1841" y="721.3169">Zombies killed</text><polygon fill="#181818" points="924.7754,751.5156,934.7754,755.5156,924.7754,759.5156,928.7754,755.5156" style="stroke:#181818;stroke-width:1;"/><line style="stroke:#181818;stroke-width:1;" x1="773.1206" x2="930.7754" y1="755.5156" y2="755.5156"/><text fill="#000000" font-family="sans-serif" font-size="13" lengthAdjust="spacing" textLength="139.6548" x="780.1206" y="750.4497">Update wave counter</text><polygon fill="#181818" points="417.1841,780.6484,407.1841,784.6484,417.1841,788.6484,413.1841,784.6484" style="stroke:#181818;stroke-width:1;"/><line style="stroke:#181818;stroke-width:1;" x1="411.1841" x2="772.1206" y1="784.6484" y2="784.6484"/><text fill="#000000" font-family="sans-serif" font-size="13" lengthAdjust="spacing" textLength="115.8511" x="423.1841" y="779.5825">Increase difficulty</text><path d="M20,806.6484 L84.4429,806.6484 L84.4429,813.7813 L74.4429,823.7813 L20,823.7813 L20,806.6484 " fill="#EEEEEE" style="stroke:#000000;stroke-width:1.5;"/><rect fill="transparent" height="104.5313" style="stroke:#000000;stroke-width:1.5;" width="969.2915" x="20" y="806.6484"/><text fill="#000000" font-family="sans-serif" font-size="13" font-weight="bold" lengthAdjust="spacing" textLength="19.4429" x="35" y="819.7153">alt</text><text fill="#000000" font-family="sans-serif" font-size="11" font-weight="bold" lengthAdjust="spacing" textLength="113.1743" x="99.4429" y="818.8589">[Shop interaction]</text><polygon fill="#181818" points="924.7754,840.9141,934.7754,844.9141,924.7754,848.9141,928.7754,844.9141" style="stroke:#181818;stroke-width:1;"/><line style="stroke:#181818;stroke-width:1;" x1="54.7827" x2="930.7754" y1="844.9141" y2="844.9141"/><text fill="#000000" font-family="sans-serif" font-size="13" lengthAdjust="spacing" textLength="62.5498" x="61.7827" y="839.8481">Presses B</text><polygon fill="#181818" points="650.5439,870.0469,640.5439,874.0469,650.5439,878.0469,646.5439,874.0469" style="stroke:#181818;stroke-width:1;"/><line style="stroke:#181818;stroke-width:1;" x1="644.5439" x2="935.7754" y1="874.0469" y2="874.0469"/><text fill="#000000" font-family="sans-serif" font-size="13" lengthAdjust="spacing" textLength="125.6011" x="656.5439" y="868.981">Show weapon shop</text><polygon fill="#181818" points="924.7754,899.1797,934.7754,903.1797,924.7754,907.1797,928.7754,903.1797" style="stroke:#181818;stroke-width:1;"/><line style="stroke:#181818;stroke-width:1;" x1="639.5439" x2="930.7754" y1="903.1797" y2="903.1797"/><text fill="#000000" font-family="sans-serif" font-size="13" lengthAdjust="spacing" textLength="181.3716" x="646.5439" y="898.1138">Update purchased weapons</text><polygon fill="#181818" points="924.7754,935.3125,934.7754,939.3125,924.7754,943.3125,928.7754,939.3125" style="stroke:#181818;stroke-width:1;"/><line style="stroke:#181818;stroke-width:1;" x1="158.3252" x2="930.7754" y1="939.3125" y2="939.3125"/><text fill="#000000" font-family="sans-serif" font-size="13" lengthAdjust="spacing" textLength="89.5464" x="165.3252" y="934.2466">Render frame</text><path d="M20,961.3125 L84.4429,961.3125 L84.4429,968.4453 L74.4429,978.4453 L20,978.4453 L20,961.3125 " fill="#EEEEEE" style="stroke:#000000;stroke-width:1.5;"/><rect fill="transparent" height="75.3984" style="stroke:#000000;stroke-width:1.5;" width="969.2915" x="20" y="961.3125"/><text fill="#000000" font-family="sans-serif" font-size="13" font-weight="bold" lengthAdjust="spacing" textLength="19.4429" x="35" y="974.3794">alt</text><text fill="#000000" font-family="sans-serif" font-size="11" font-weight="bold" lengthAdjust="spacing" textLength="78.8477" x="99.4429" y="973.5229">[Player dies]</text><polygon fill="#181818" points="924.7754,995.5781,934.7754,999.5781,924.7754,1003.5781,928.7754,999.5781" style="stroke:#181818;stroke-width:1;"/><line style="stroke:#181818;stroke-width:1;" x1="287.9473" x2="930.7754" y1="999.5781" y2="999.5781"/><text fill="#000000" font-family="sans-serif" font-size="13" lengthAdjust="spacing" textLength="146.2437" x="294.9473" y="994.5122">Show death animation</text><polygon fill="#181818" points="65.7827,1024.7109,55.7827,1028.7109,65.7827,1032.7109,61.7827,1028.7109" style="stroke:#181818;stroke-width:1;"/><line style="stroke:#181818;stroke-width:1;" x1="59.7827" x2="935.7754" y1="1028.7109" y2="1028.7109"/><text fill="#000000" font-family="sans-serif" font-size="13" lengthAdjust="spacing" textLength="110.062" x="71.7827" y="1023.645">Offer restart/quit</text><!--SRC=[TLDDR-8m4BtdLunwwXwgtZcibBA08XKjsWX5ukRQ4sAHsAdjWEYlt_47a53gGnJvlHc_UJFZf6iHtbgj1UHAXB_EmWkicLImOXr2YPy3AevPnhZJ1ZOjEwF9UcQSvB9doi5J82xKNYfy0cPXjPZYCGRc3JEK14qWRUPJqavt7n8XBmAwowVeafaEohDrs0LyMKxn2bclrPXHtJFO4QaknVP9GBMU4hR5E7nRP5dI_VARAff1wOXjOK_5Pgk5lzqMTDle4rWFGOTgo2XBugVetg2rQ2Cd1MxcCoYKT9AryWkXZvv6h5gdf-3a5TiWASkeCttio3lzPK3d9i_dM-iZlV9SvUMVNm_WN59ZdpizM8nm-B3MmLAIGZW50yFbz-1th1tmLlB3ZJ0FOilWW7RmCRGjkYjSbHxUvJFgEl83DDA1G8VSoT4hk_nYuxONp25ynI5ea8GrWOPAJEMICkNiAyqIrUli3uetoVK5A6G6QXgVE-dBSXPpNL81DybOVvRbdJIV0exI3gor3rYv4D1fXMUGDQICA1wN44QnDthlHOxzgDONrygUdLIomzxvvISaRek5WoJRnLs2aUemGrmFYjRkmJE5uWQPHH2ohYKVMdT-B9cQt8FqMTYqXJVR_QiNsz-kUDo7D2UdD6PWcv7LrRtL_M1uGwf4ejllccuB-8_kIK1j_5vwJfQcnCiI5_TYpwyBAv2v1fYI7RjM4vN6m1dyhMkAftByAhv-3jBvvFy1]--></g></svg>