<svg xmlns="http://www.w3.org/2000/svg" xmlns:xlink="http://www.w3.org/1999/xlink" contentStyleType="text/css" data-diagram-type="DESCRIPTION" height="1019px" preserveAspectRatio="none" style="width:1442px;height:1019px;background:#FFFFFF;" version="1.1" viewBox="0 0 1442 1019" width="1442px" zoomAndPan="magnify"><defs/><g><!--cluster Game--><g id="cluster_Game"><rect fill="transparent" height="214" rx="2.5" ry="2.5" style="stroke:#181818;stroke-width:1;" width="462" x="189.5" y="498"/><text fill="#000000" font-family="sans-serif" font-size="14" font-weight="bold" lengthAdjust="spacing" textLength="45.0215" x="397.9893" y="512.9951">Game</text></g><!--cluster Combat--><g id="cluster_Combat"><rect fill="transparent" height="225" rx="2.5" ry="2.5" style="stroke:#181818;stroke-width:1;" width="477.5" x="178.5" y="202"/><text fill="#000000" font-family="sans-serif" font-size="14" font-weight="bold" lengthAdjust="spacing" textLength="60.6416" x="386.9292" y="216.9951">Combat</text></g><!--cluster Farming--><g id="cluster_Farming"><rect fill="transparent" height="103" rx="2.5" ry="2.5" style="stroke:#181818;stroke-width:1;" width="731.5" x="189" y="75"/><text fill="#000000" font-family="sans-serif" font-size="14" font-weight="bold" lengthAdjust="spacing" textLength="65.29" x="522.105" y="89.9951">Farming</text></g><!--cluster Shop--><g id="cluster_Shop"><rect fill="transparent" height="103" rx="2.5" ry="2.5" style="stroke:#181818;stroke-width:1;" width="428" x="1008" y="70"/><text fill="#000000" font-family="sans-serif" font-size="14" font-weight="bold" lengthAdjust="spacing" textLength="39.6895" x="1202.1553" y="84.9951">Shop</text></g><!--cluster Zombies--><g id="cluster_Zombies"><rect fill="transparent" height="103" rx="2.5" ry="2.5" style="stroke:#181818;stroke-width:1;" width="746" x="178" y="865"/><text fill="#000000" font-family="sans-serif" font-size="14" font-weight="bold" lengthAdjust="spacing" textLength="67.0059" x="517.4971" y="879.9951">Zombies</text></g><g id="elem_UC1"><ellipse cx="271.0334" cy="549.0067" fill="#FFFFFF" rx="65.5334" ry="15.5067" style="stroke:#000000;stroke-width:0.5;"/><text fill="#000000" font-family="sans-serif" font-size="14" lengthAdjust="spacing" textLength="80.3291" x="227.8689" y="552.7542">Start Game</text></g><g id="elem_UC2"><ellipse cx="572.5516" cy="671.0103" fill="#FFFFFF" rx="63.0516" ry="15.0103" style="stroke:#000000;stroke-width:0.5;"/><text fill="#000000" font-family="sans-serif" font-size="14" lengthAdjust="spacing" textLength="72.9668" x="533.0682" y="674.7579">Play Wave</text></g><g id="elem_UC3"><ellipse cx="271.0589" cy="614.9118" fill="#FFFFFF" rx="65.0589" ry="15.4118" style="stroke:#000000;stroke-width:0.5;"/><text fill="#000000" font-family="sans-serif" font-size="14" lengthAdjust="spacing" textLength="78.9482" x="228.5848" y="618.6593">Die/Restart</text></g><g id="elem_UC4"><ellipse cx="270.8585" cy="681.1717" fill="#FFFFFF" rx="63.8585" ry="15.1717" style="stroke:#000000;stroke-width:0.5;"/><text fill="#000000" font-family="sans-serif" font-size="14" lengthAdjust="spacing" textLength="75.4004" x="230.1583" y="684.9193">Quit Game</text></g><g id="elem_UC5"><ellipse cx="271.2259" cy="254.8452" fill="#FFFFFF" rx="74.7259" ry="17.3452" style="stroke:#000000;stroke-width:0.5;"/><text fill="#000000" font-family="sans-serif" font-size="14" lengthAdjust="spacing" textLength="105.3076" x="215.5721" y="258.5927">Shoot Zombies</text></g><g id="elem_UC6"><ellipse cx="271.0897" cy="325.2179" fill="#FFFFFF" rx="76.5897" ry="17.7179" style="stroke:#000000;stroke-width:0.5;"/><text fill="#000000" font-family="sans-serif" font-size="14" lengthAdjust="spacing" textLength="110.0723" x="213.0536" y="328.9655">Reload Weapon</text></g><g id="elem_UC7"><ellipse cx="271.195" cy="394.239" fill="#FFFFFF" rx="71.695" ry="16.739" style="stroke:#000000;stroke-width:0.5;"/><text fill="#000000" font-family="sans-serif" font-size="14" lengthAdjust="spacing" textLength="97.3779" x="219.506" y="397.9866">Take Damage</text></g><g id="elem_UC8"><ellipse cx="572.444" cy="319.8888" fill="#FFFFFF" rx="67.444" ry="15.8888" style="stroke:#000000;stroke-width:0.5;"/><text fill="#000000" font-family="sans-serif" font-size="14" lengthAdjust="spacing" textLength="85.7773" x="526.5553" y="323.6363">Kill Zombies</text></g><g id="elem_UC9"><ellipse cx="271.1191" cy="146.1238" fill="#FFFFFF" rx="66.1191" ry="15.6238" style="stroke:#000000;stroke-width:0.5;"/><text fill="#000000" font-family="sans-serif" font-size="14" lengthAdjust="spacing" textLength="82.0176" x="227.1104" y="149.8714">Plant Seeds</text></g><g id="elem_UC10"><ellipse cx="572.4102" cy="126.882" fill="#FFFFFF" rx="72.4102" ry="16.882" style="stroke:#000000;stroke-width:0.5;"/><text fill="#000000" font-family="sans-serif" font-size="14" lengthAdjust="spacing" textLength="99.2715" x="519.7744" y="130.6296">Harvest Crops</text></g><g id="elem_UC11"><ellipse cx="837.9345" cy="136.1869" fill="#FFFFFF" rx="66.4345" ry="15.6869" style="stroke:#000000;stroke-width:0.5;"/><text fill="#000000" font-family="sans-serif" font-size="14" lengthAdjust="spacing" textLength="82.9199" x="793.4746" y="139.9345">Earn Money</text></g><g id="elem_UC12"><ellipse cx="1095.1284" cy="136.1257" fill="#FFFFFF" rx="71.1284" ry="16.6257" style="stroke:#000000;stroke-width:0.5;"/><text fill="#000000" font-family="sans-serif" font-size="14" lengthAdjust="spacing" textLength="95.8672" x="1044.1948" y="139.8732">Buy Weapons</text></g><g id="elem_UC13"><ellipse cx="1343.966" cy="123.0932" fill="#FFFFFF" rx="75.966" ry="17.5932" style="stroke:#000000;stroke-width:0.5;"/><text fill="#000000" font-family="sans-serif" font-size="14" lengthAdjust="spacing" textLength="108.4863" x="1286.7228" y="126.8408">Equip Weapons</text></g><g id="elem_UC14"><ellipse cx="271.1958" cy="917.8392" fill="#FFFFFF" rx="77.1958" ry="17.8392" style="stroke:#000000;stroke-width:0.5;"/><text fill="#000000" font-family="sans-serif" font-size="14" lengthAdjust="spacing" textLength="111.6035" x="212.6071" y="921.5313">Spawn Zombies</text></g><g id="elem_UC15"><ellipse cx="572.4923" cy="918.8985" fill="#FFFFFF" rx="82.4923" ry="18.8985" style="stroke:#000000;stroke-width:0.5;"/><text fill="#000000" font-family="sans-serif" font-size="14" lengthAdjust="spacing" textLength="124.4824" x="509.4844" y="922.002">Pathfind to Player</text></g><g id="elem_UC16"><ellipse cx="838.0468" cy="916.9094" fill="#FFFFFF" rx="70.0468" ry="16.4094" style="stroke:#000000;stroke-width:0.5;"/><text fill="#000000" font-family="sans-serif" font-size="14" lengthAdjust="spacing" textLength="92.9551" x="788.5693" y="920.6569">Attack Player</text></g><!--entity P--><g id="elem_P"><ellipse cx="31.7827" cy="248.5" fill="#F1F1F1" rx="8" ry="8" style="stroke:#181818;stroke-width:0.5;"/><path d="M31.7827,256.5 L31.7827,283.5 M18.7827,264.5 L44.7827,264.5 M31.7827,283.5 L18.7827,298.5 M31.7827,283.5 L44.7827,298.5 " fill="transparent" style="stroke:#181818;stroke-width:0.5;"/><text fill="#000000" font-family="sans-serif" font-size="14" lengthAdjust="spacing" textLength="43.5654" x="10" y="312.9951">Player</text></g><!--entity S--><g id="elem_S"><ellipse cx="32.103" cy="810.5" fill="#F1F1F1" rx="8" ry="8" style="stroke:#181818;stroke-width:0.5;"/><path d="M32.103,818.5 L32.103,845.5 M19.103,826.5 L45.103,826.5 M32.103,845.5 L19.103,860.5 M32.103,845.5 L45.103,860.5 " fill="transparent" style="stroke:#181818;stroke-width:0.5;"/><text fill="#000000" font-family="sans-serif" font-size="14" lengthAdjust="spacing" textLength="52.2061" x="6" y="874.9951">System</text></g><!--link P to UC1--><g id="link_P_UC1"><path d="M54.24,285.48 C87.36,297.58 148.89,322.04 162,341 C172.91,356.79 162.71,409.25 170,427 C188.31,471.59 224.2621,508.503 247.7221,529.743 " fill="transparent" id="P-to-UC1" style="stroke:#181818;stroke-width:1;"/><polygon fill="#181818" points="252.17,533.77,248.1828,524.7643,248.4634,530.4142,242.8136,530.6948,252.17,533.77" style="stroke:#181818;stroke-width:1;"/></g><!--link P to UC3--><g id="link_P_UC3"><path d="M54.23,304.42 C63.87,315.51 75.83,328.11 88,338 C117.69,362.14 142.42,349.13 162,382 C173.38,401.11 156.61,564.25 170,582 C180.18,595.51 190.3073,601.8552 206.4373,606.6352 " fill="transparent" id="P-to-UC3" style="stroke:#181818;stroke-width:1;"/><polygon fill="#181818" points="212.19,608.34,204.6974,601.9477,207.3961,606.9194,202.4244,609.618,212.19,608.34" style="stroke:#181818;stroke-width:1;"/></g><!--link P to UC4--><g id="link_P_UC4"><path d="M47.87,316.16 C57.17,336.52 70.69,361.03 88,379 C114.54,406.57 142.49,390.09 162,423 C174.75,444.52 154.98,628 170,648 C180.32,661.75 190.7769,668.1808 207.1769,672.9308 " fill="transparent" id="P-to-UC4" style="stroke:#181818;stroke-width:1;"/><polygon fill="#181818" points="212.94,674.6,205.4081,668.2541,208.1374,673.209,203.1825,675.9383,212.94,674.6" style="stroke:#181818;stroke-width:1;"/></g><!--link P to UC5--><g id="link_P_UC5"><path d="M54.01,269.03 C64.09,265.17 76.47,261.07 88,259 C123.78,252.59 158.1403,251.0811 191.7403,251.4111 " fill="transparent" id="P-to-UC5" style="stroke:#181818;stroke-width:1;"/><polygon fill="#181818" points="197.74,251.47,188.7797,247.3818,192.7402,251.4209,188.7012,255.3814,197.74,251.47" style="stroke:#181818;stroke-width:1;"/></g><!--link P to UC6--><g id="link_P_UC6"><path d="M54.07,281.21 C79.67,285.19 124.13,292.4 162,300 C180.3,303.68 194.3982,306.7911 212.1082,310.9411 " fill="transparent" id="P-to-UC6" style="stroke:#181818;stroke-width:1;"/><polygon fill="#181818" points="217.95,312.31,210.1,306.3621,213.0819,311.1692,208.2748,314.1511,217.95,312.31" style="stroke:#181818;stroke-width:1;"/></g><!--link S to UC7--><g id="link_S_UC7"><path d="M35.86,801.96 C42.16,725.25 59.05,555.07 88,505 C117.92,453.26 176.8692,424.647 220.4892,409.077 " fill="transparent" id="S-to-UC7" style="stroke:#181818;stroke-width:1;"/><polygon fill="#181818" points="226.14,407.06,216.3191,406.3183,221.431,408.7409,219.0085,413.8528,226.14,407.06" style="stroke:#181818;stroke-width:1;"/></g><!--link S to UC8--><g id="link_S_UC8"><path d="M35.78,801.97 C41.6,731.75 57.17,585.34 88,546 C107.57,521.04 319.27,441.46 348,428 C418.05,395.19 494.3646,357.9353 536.9346,337.0253 " fill="transparent" id="S-to-UC8" style="stroke:#181818;stroke-width:1;"/><polygon fill="#181818" points="542.32,334.38,532.4784,334.7576,537.8322,336.5844,536.0054,341.9382,542.32,334.38" style="stroke:#181818;stroke-width:1;"/></g><!--link P to UC9--><g id="link_P_UC9"><path d="M54.06,257.09 C63.86,248.06 75.98,237.79 88,230 C135.6,199.16 190.7692,175.6919 228.6392,161.1419 " fill="transparent" id="P-to-UC9" style="stroke:#181818;stroke-width:1;"/><polygon fill="#181818" points="234.24,158.99,224.4042,158.4839,229.5726,160.7832,227.2733,165.9517,234.24,158.99" style="stroke:#181818;stroke-width:1;"/></g><!--link P to UC10--><g id="link_P_UC10"><path d="M50.31,239.77 C71.6,198.37 112.15,135.28 170,113 C291.23,66.33 442.7573,93.5323 519.4973,112.6123 " fill="transparent" id="P-to-UC10" style="stroke:#181818;stroke-width:1;"/><polygon fill="#181818" points="525.32,114.06,517.5511,108.0066,520.4677,112.8536,515.6208,115.7702,525.32,114.06" style="stroke:#181818;stroke-width:1;"/></g><!--link S to UC11--><g id="link_S_UC11"><path d="M58.09,838.54 C164.42,831.8 576.41,800.28 664,712 C829.47,545.24 837.7445,232.6699 837.3145,157.9599 " fill="transparent" id="S-to-UC11" style="stroke:#181818;stroke-width:1;"/><polygon fill="#181818" points="837.28,151.96,833.3319,160.9829,837.3088,156.9599,841.3317,160.9368,837.28,151.96" style="stroke:#181818;stroke-width:1;"/></g><!--link P to UC12--><g id="link_P_UC12"><path d="M45.61,316.2 C55.72,345.27 71,385.94 88,420 C115.81,475.73 143.52,479.53 162,539 C167.71,557.38 157.1,697.72 170,712 C244.69,794.72 306.56,749 418,749 C418,749 418,749 839,749 C971.99,749 1071.2985,256.8561 1089.8185,158.6161 " fill="transparent" id="P-to-UC12" style="stroke:#181818;stroke-width:1;"/><polygon fill="#181818" points="1090.93,152.72,1085.3319,160.8232,1090.0037,157.6335,1093.1935,162.3052,1090.93,152.72" style="stroke:#181818;stroke-width:1;"/></g><!--link P to UC13--><g id="link_P_UC13"><path d="M39.14,239.94 C46.18,206.05 60.5,156.64 88,122 C147.65,46.89 174.08,6 270,6 C270,6 270,6 1096,6 C1188.29,6 1278.254,69.7679 1318.394,102.2179 " fill="transparent" id="P-to-UC13" style="stroke:#181818;stroke-width:1;"/><polygon fill="#181818" points="1323.06,105.99,1318.5757,97.2212,1319.1717,102.8466,1313.5463,103.4425,1323.06,105.99" style="stroke:#181818;stroke-width:1;"/></g><!--link S to UC14--><g id="link_S_UC14"><path d="M58.36,848.35 C98.25,861.48 170.4607,885.2445 219.8107,901.4845 " fill="transparent" id="S-to-UC14" style="stroke:#181818;stroke-width:1;"/><polygon fill="#181818" points="225.51,903.36,218.2113,896.7472,220.7606,901.7971,215.7106,904.3463,225.51,903.36" style="stroke:#181818;stroke-width:1;"/></g><!--link S to UC15--><g id="link_S_UC15"><path d="M58.06,870.64 C83.02,898.46 124.17,937.43 170,953 C293.2,994.87 443.5829,959.7065 519.7529,936.3865 " fill="transparent" id="S-to-UC15" style="stroke:#181818;stroke-width:1;"/><polygon fill="#181818" points="525.49,934.63,515.7133,933.4399,520.709,936.0937,518.0553,941.0895,525.49,934.63" style="stroke:#181818;stroke-width:1;"/></g><!--link S to UC16--><g id="link_S_UC16"><path d="M41.79,878.11 C49.69,904.15 63.88,937.52 88,958 C116.85,982.5 132.5,975.84 170,981 C401.64,1012.88 674.8859,956.6411 784.1059,930.4111 " fill="transparent" id="S-to-UC16" style="stroke:#181818;stroke-width:1;"/><polygon fill="#181818" points="789.94,929.01,780.2548,927.2222,785.0782,930.1776,782.1229,935.0011,789.94,929.01" style="stroke:#181818;stroke-width:1;"/></g><!--link UC16 to UC7--><g id="link_UC16_UC7"><path d="M834.8,900.48 C825.83,839.84 786.54,627.41 664,517 C572.32,434.41 431.4976,407.9023 345.9576,398.9823 " fill="transparent" id="UC16-to-UC7" style="stroke:#181818;stroke-width:1;"/><polygon fill="#181818" points="339.99,398.36,348.5266,403.2719,344.963,398.8786,349.3563,395.315,339.99,398.36" style="stroke:#181818;stroke-width:1;"/><text fill="#000000" font-family="sans-serif" font-size="13" lengthAdjust="spacing" textLength="44.897" x="550.5" y="424.0669">causes</text></g><!--link UC1 to UC2--><g id="link_UC1_UC2"><path d="M304.91,562.41 C362.96,586.05 477.2333,632.6065 534.3333,655.8665 " fill="transparent" id="UC1-to-UC2" style="stroke:#181818;stroke-width:1;"/><polygon fill="#181818" points="539.89,658.13,533.064,651.0303,535.2595,656.2437,530.046,658.4391,539.89,658.13" style="stroke:#181818;stroke-width:1;"/><text fill="#000000" font-family="sans-serif" font-size="13" lengthAdjust="spacing" textLength="50.6733" x="394" y="592.0669">triggers</text></g><!--link UC2 to UC14--><g id="link_UC2_UC14"><path d="M553.92,685.5 C501.97,728.35 353.8789,850.4825 297.6889,896.8225 " fill="transparent" id="UC2-to-UC14" style="stroke:#181818;stroke-width:1;"/><polygon fill="#181818" points="293.06,900.64,302.5484,897.9997,296.9174,897.4588,297.4584,891.8278,293.06,900.64" style="stroke:#181818;stroke-width:1;"/><text fill="#000000" font-family="sans-serif" font-size="13" lengthAdjust="spacing" textLength="80.3613" x="379" y="762.0669">during wave</text></g><!--link UC5 to UC8--><g id="link_UC5_UC8"><path d="M326.24,266.77 C382.03,278.88 462.3265,296.3073 516.2765,308.0173 " fill="transparent" id="UC5-to-UC8" style="stroke:#181818;stroke-width:1;"/><polygon fill="#181818" points="522.14,309.29,514.1933,303.472,517.2538,308.2294,512.4963,311.29,522.14,309.29" style="stroke:#181818;stroke-width:1;"/><text fill="#000000" font-family="sans-serif" font-size="13" lengthAdjust="spacing" textLength="59.8203" x="389.5" y="276.0669">results in</text></g><!--link UC9 to UC10--><g id="link_UC9_UC10"><path d="M334.79,142.02 C383.76,138.91 445.732,134.9791 496.272,131.7791 " fill="transparent" id="UC9-to-UC10" style="stroke:#181818;stroke-width:1;"/><polygon fill="#181818" points="502.26,131.4,493.0252,127.9767,497.27,131.7159,493.5307,135.9607,502.26,131.4" style="stroke:#181818;stroke-width:1;"/><text fill="#000000" font-family="sans-serif" font-size="13" lengthAdjust="spacing" textLength="80.6343" x="379" y="131.0669">after growth</text></g><!--link UC10 to UC11--><g id="link_UC10_UC11"><path d="M644.46,129.43 C684.09,130.78 727.1235,132.2553 765.7935,133.5753 " fill="transparent" id="UC10-to-UC11" style="stroke:#181818;stroke-width:1;"/><polygon fill="#181818" points="771.79,133.78,762.9317,129.4753,766.7929,133.6094,762.6588,137.4706,771.79,133.78" style="stroke:#181818;stroke-width:1;"/><text fill="#000000" font-family="sans-serif" font-size="13" lengthAdjust="spacing" textLength="41.6724" x="691" y="127.0669">grants</text></g><!--link UC11 to UC12--><g id="link_UC11_UC12"><path d="M904.67,136 C941.12,136 980.46,136 1017.64,136 " fill="transparent" id="UC11-to-UC12" style="stroke:#181818;stroke-width:1;"/><polygon fill="#181818" points="1023.64,136,1014.64,132,1018.64,136,1014.64,140,1023.64,136" style="stroke:#181818;stroke-width:1;"/><text fill="#000000" font-family="sans-serif" font-size="13" lengthAdjust="spacing" textLength="50.8384" x="941" y="132.0669">enables</text></g><!--link UC12 to UC13--><g id="link_UC12_UC13"><path d="M1164.48,132.4 C1197.17,130.68 1230.3384,128.9367 1263.6384,127.1767 " fill="transparent" id="UC12-to-UC13" style="stroke:#181818;stroke-width:1;"/><polygon fill="#181818" points="1269.63,126.86,1260.4314,123.3406,1264.637,127.1239,1260.8537,131.3294,1269.63,126.86" style="stroke:#181818;stroke-width:1;"/><text fill="#000000" font-family="sans-serif" font-size="13" lengthAdjust="spacing" textLength="40.5488" x="1197" y="125.0669">allows</text></g><!--link UC14 to UC15--><g id="link_UC14_UC15"><path d="M347.85,919.61 C357.99,919.77 368.25,919.91 378,920 C414.78,920.35 449.5002,920.2669 484.0602,919.9969 " fill="transparent" id="UC14-to-UC15" style="stroke:#181818;stroke-width:1;"/><polygon fill="#181818" points="490.06,919.95,481.029,916.0204,485.0602,919.9891,481.0915,924.0202,490.06,919.95" style="stroke:#181818;stroke-width:1;"/><text fill="#000000" font-family="sans-serif" font-size="13" lengthAdjust="spacing" textLength="73.9185" x="382.5" y="916.0669">AI behavior</text></g><!--link UC15 to UC16--><g id="link_UC15_UC16"><path d="M655.07,918.38 C691.19,918.11 727.2302,917.8351 761.8002,917.5751 " fill="transparent" id="UC15-to-UC16" style="stroke:#181818;stroke-width:1;"/><polygon fill="#181818" points="767.8,917.53,758.7702,913.5978,762.8001,917.5676,758.8303,921.5976,767.8,917.53" style="stroke:#181818;stroke-width:1;"/><text fill="#000000" font-family="sans-serif" font-size="13" lengthAdjust="spacing" textLength="51.7842" x="686" y="914.0669">leads to</text></g><!--link UC7 to UC3--><g id="link_UC7_UC3"><path d="M224.26,406.63 C205.64,413.5 185.09,423.61 170,438 C106.53,498.54 101.92,545.1 116,564.5 C136.87,593.25 168.6009,604.9683 201.5809,610.4383 " fill="transparent" id="UC7-to-UC3" style="stroke:#181818;stroke-width:1;"/><polygon fill="#181818" points="207.5,611.42,199.2758,606.0013,202.5674,610.6019,197.9668,613.8935,207.5,611.42" style="stroke:#181818;stroke-width:1;"/><text fill="#000000" font-family="sans-serif" font-size="13" lengthAdjust="spacing" textLength="72.6362" x="89" y="560.5669">if health=0</text></g><!--SRC=[NLFRYjim47ttLmpxlZJttIoqiCbkBvH2kca9z6rYJsmHMN8bEI6K_dj7YULA1eEbSmupPsOqaWuEd0OZoif18GpbJcYLsQDG3HgieTPAvvNHDO4pBKLCQob7I_0d0rXXVYoDRbMnrb8Rs5N2aSUrASZSi9LaKVOtop1tVDr8l901jB3faEt5EgeziiqoxmHLAGa-ONrB4XBURHqQTyNllFhdUXopFZ3iy1J8IKo-27htHjO7wEXfJ7zlHH9unYH_6xY__z3b2UTfT9xviluxNkjwZsxWkTBQmIzc1Dak-ZmMl97KMC2EiD6g4onYmGyy4hnWZMLmzn3JNuMKW_YFgVjvTFQHjztv8Je_ffLyH5CBLQQbS8ELWorH4H8jO_epcXDt6DP6Dq4m7iMALpGAlcb5bq2FKwVBkEUZo1uB4t_SrIOrjselNG_xtCa3UFtTYcQec0x6F8alqpHbr-B1T1iygq7tnxEaQUYgWr25txRRqm-ov1KyEyTRCb0iRlRw9ipYopo-BBnN_m-ZXIV8aQDRZtRWX4776r-IyV2a3yjuqHe_xpEl3rFpy2gOCMHRwIm8nSIo7mupU72yoBp-PrTbLomCYydIy6EvPX_ttMMO5ExbpLMVV-fZIQdFLtZM5yZmynVOKuKdeKrsXKAzp4d2md9RCrzkjviCYmDKXD9LxqV_0000]--></g></svg>